<?xml version="1.0" encoding="UTF-8" standalone="no"?>
<!-- Created with matplotlib (http://matplotlib.org/) -->

<svg
   xmlns:dc="http://purl.org/dc/elements/1.1/"
   xmlns:cc="http://creativecommons.org/ns#"
   xmlns:rdf="http://www.w3.org/1999/02/22-rdf-syntax-ns#"
   xmlns:svg="http://www.w3.org/2000/svg"
   xmlns="http://www.w3.org/2000/svg"
   xmlns:xlink="http://www.w3.org/1999/xlink"
   xmlns:sodipodi="http://sodipodi.sourceforge.net/DTD/sodipodi-0.dtd"
   xmlns:inkscape="http://www.inkscape.org/namespaces/inkscape"
   height="100"
   version="1.1"
   viewBox="0 0 277.5 75"
   width="370"
   id="svg2"
   inkscape:version="0.92.1 r15371"
   sodipodi:docname="eccw_title.svg"
   inkscape:export-filename="/home/bmary/Programmation/ECCW/images/eccw_title.png"
   inkscape:export-xdpi="300"
   inkscape:export-ydpi="300">
  <metadata
     id="metadata563">
    <rdf:RDF>
      <cc:Work
         rdf:about="">
        <dc:format>image/svg+xml</dc:format>
        <dc:type
           rdf:resource="http://purl.org/dc/dcmitype/StillImage" />
        <dc:title></dc:title>
      </cc:Work>
    </rdf:RDF>
  </metadata>
  <sodipodi:namedview
     pagecolor="#ffffff"
     bordercolor="#666666"
     borderopacity="1"
     objecttolerance="10"
     gridtolerance="10"
     guidetolerance="10"
     inkscape:pageopacity="0"
     inkscape:pageshadow="2"
     inkscape:window-width="1920"
     inkscape:window-height="1016"
     id="namedview561"
     showgrid="false"
     inkscape:zoom="2.4218006"
     inkscape:cx="214.33047"
     inkscape:cy="64.398541"
     inkscape:window-x="1920"
     inkscape:window-y="27"
     inkscape:window-maximized="1"
     inkscape:current-layer="svg2"
     fit-margin-top="0"
     fit-margin-left="0"
     fit-margin-right="0"
     fit-margin-bottom="0"
     units="px" />
  <defs
     id="defs4"
     style="stroke-linecap:butt;stroke-linejoin:round">
    <linearGradient
       inkscape:collect="always"
       id="linearGradient4479">
      <stop
         style="stop-color:#ffffff;stop-opacity:1;"
         offset="0"
         id="stop4481" />
      <stop
         style="stop-color:#ffffff;stop-opacity:0;"
         offset="1"
         id="stop4483" />
    </linearGradient>
    <linearGradient
       inkscape:collect="always"
       id="linearGradient4359">
      <stop
         style="stop-color:#000000;stop-opacity:1;"
         offset="0"
         id="stop4361" />
      <stop
         style="stop-color:#000000;stop-opacity:0;"
         offset="1"
         id="stop4363" />
    </linearGradient>
    <linearGradient
       inkscape:collect="always"
       id="linearGradient4296">
      <stop
         style="stop-color:#624000;stop-opacity:1;"
         offset="0"
         id="stop4298" />
      <stop
         style="stop-color:#624000;stop-opacity:0;"
         offset="1"
         id="stop4300" />
    </linearGradient>
    <linearGradient
       inkscape:collect="always"
       id="linearGradient4630">
      <stop
         style="stop-color:#ffffff;stop-opacity:1;"
         offset="0"
         id="stop4632" />
      <stop
         style="stop-color:#ffffff;stop-opacity:0;"
         offset="1"
         id="stop4634" />
    </linearGradient>
    <linearGradient
       inkscape:collect="always"
       id="linearGradient4622">
      <stop
         style="stop-color:#ffffff;stop-opacity:1;"
         offset="0"
         id="stop4624" />
      <stop
         style="stop-color:#ffffff;stop-opacity:0;"
         offset="1"
         id="stop4626" />
    </linearGradient>
    <linearGradient
       inkscape:collect="always"
       id="linearGradient4602">
      <stop
         style="stop-color:#ffffff;stop-opacity:1;"
         offset="0"
         id="stop4604" />
      <stop
         style="stop-color:#ffffff;stop-opacity:0;"
         offset="1"
         id="stop4606" />
    </linearGradient>
    <linearGradient
       inkscape:collect="always"
       id="linearGradient4594">
      <stop
         style="stop-color:#ffffff;stop-opacity:1;"
         offset="0"
         id="stop4596" />
      <stop
         style="stop-color:#ffffff;stop-opacity:0;"
         offset="1"
         id="stop4598" />
    </linearGradient>
    <linearGradient
       inkscape:collect="always"
       id="linearGradient4434">
      <stop
         style="stop-color:#ffffff;stop-opacity:1;"
         offset="0"
         id="stop4436" />
      <stop
         style="stop-color:#ffffff;stop-opacity:0;"
         offset="1"
         id="stop4438" />
    </linearGradient>
    <linearGradient
       inkscape:collect="always"
       id="linearGradient4368">
      <stop
         style="stop-color:#ffffff;stop-opacity:1;"
         offset="0"
         id="stop4370" />
      <stop
         style="stop-color:#ffffff;stop-opacity:0;"
         offset="1"
         id="stop4372" />
    </linearGradient>
    <linearGradient
       inkscape:collect="always"
       id="linearGradient4348">
      <stop
         style="stop-color:#ffffff;stop-opacity:1;"
         offset="0"
         id="stop4350" />
      <stop
         style="stop-color:#ffffff;stop-opacity:0;"
         offset="1"
         id="stop4352" />
    </linearGradient>
    <style
       type="text/css"
       id="style6">
*{stroke-linecap:butt;stroke-linejoin:round;}
  </style>
    <defs
       id="defs514">
      <path
         style="stroke-linecap:butt;stroke-linejoin:round"
         inkscape:connector-curvature="0"
         id="DejaVuSans-2e"
         d="M 10.6875,12.4062 H 21 V 0 H 10.6875 Z" />
      <path
         style="stroke-linecap:butt;stroke-linejoin:round"
         inkscape:connector-curvature="0"
         id="Cmmi10-42"
         d="M 4.98438,0 Q 4,0 4,1.3125 q 0.04688,0.25 0.1875,0.82812 0.15625,0.59376 0.39062,0.98438 0.25,0.39062 0.75,0.39062 2.82813,0 4.92188,0.14063 2.1094,0.15625 3.5625,0.54687 1.1719,0.4375 1.9063,2.6875 L 29.3906,61.8125 q 0.2032,0.9844 0.2032,1.375 0,1.0781 -1.1719,1.2187 -1.9063,0.3907 -7.2344,0.3907 -0.9687,0 -0.9687,1.3125 0.0468,0.25 0.1874,0.8594 0.1563,0.6093 0.4219,0.9687 0.2657,0.375 0.6563,0.375 h 35.8437 q 3.2657,0 6.4688,-0.8125 3.2031,-0.7969 5.9062,-2.5625 2.7031,-1.75 4.2969,-4.375 1.5938,-2.6094 1.5938,-6.0625 0,-3.7656 -1.9376,-7 -1.9218,-3.2188 -4.9843,-5.6094 -3.0469,-2.3906 -6.5938,-3.9375 -3.5312,-1.5312 -7.3906,-2.2656 2.7344,0 5.5313,-1.0781 2.8124,-1.0625 5.0156,-2.9219 2.2031,-1.8594 3.5468,-4.4531 1.3438,-2.5782 1.3438,-5.5469 0,-6.0156 -4.2031,-11 Q 61.7188,5.71875 55.3438,2.85938 48.9688,0 43.0156,0 Z M 23.3906,4.29688 q 0,-0.78126 3.4219,-0.78126 h 14.2969 q 4.8906,0 9.375,2.70313 4.5,2.71875 7.2031,7.20315 2.7187,4.5 2.7187,9.375 0,2.9843 -1.25,5.6406 -1.25,2.6719 -3.5937,4.2031 -2.3437,1.5469 -5.3594,1.5469 H 30.7188 L 23.7812,6.5 Q 23.3906,5.125 23.3906,4.29688 m 8,32.51562 h 15.1875 q 4.7969,0 9.3125,2.4375 4.5156,2.4531 7.3594,6.6406 2.8594,4.2032 2.8594,8.8906 0,4.3438 -2.7188,7.1719 -2.7031,2.8438 -7,2.8438 H 42.6719 q -2.6875,0 -3.6094,-0.5 Q 38.1406,63.8125 37.5,61.375 Z" />
      <path
         style="stroke-linecap:butt;stroke-linejoin:round"
         inkscape:connector-curvature="0"
         id="Cmmi10-44"
         d="m 4.89062,0 q -0.98437,0 -0.98437,1.3125 0.04687,0.25 0.1875,0.85938 0.15625,0.60937 0.42187,0.96874 0.26563,0.375 0.65626,0.375 6.10932,0 8.54692,0.6875 1.2656,0.4375 1.8593,2.6875 L 29.2969,61.8125 q 0.2031,0.9844 0.2031,1.375 0,1.0781 -1.1719,1.2187 -1.9062,0.3907 -7.2343,0.3907 -0.9688,0 -0.9688,1.3125 0.0469,0.25 0.1875,0.8594 0.1406,0.6093 0.4063,0.9687 0.2812,0.375 0.6718,0.375 h 35.9375 q 6.9844,0 12.2031,-3.3906 5.2188,-3.3907 8,-9.1407 2.7969,-5.7343 2.7969,-12.6718 0,-7.6563 -3.1875,-15.3282 Q 73.9688,20.125 68.25,13.7656 62.5469,7.42188 55.2188,3.70312 47.9062,0 40.1875,0 Z M 23.5781,4.29688 q 0,-0.78126 3.4219,-0.78126 h 11.625 q 5.5625,0 10.7344,2.29688 5.1875,2.29688 9.2344,6.2969 3.7656,3.7656 6.6406,9.8594 2.875,6.1093 4.4687,12.75 1.5938,6.6406 1.5938,12.2031 0,4.0625 -1.2031,7.3281 -1.2032,3.2656 -3.375,5.6094 -2.1719,2.3437 -5.4376,3.6406 -3.2656,1.2969 -7.375,1.2969 H 42.9219 q -2.7344,0 -3.625,-0.4688 -0.875,-0.4531 -1.5938,-2.9531 L 24.0312,6.5 Q 23.5781,5.28125 23.5781,4.29688" />
      <path
         style="stroke-linecap:butt;stroke-linejoin:round"
         inkscape:connector-curvature="0"
         id="DejaVuSans-3d"
         d="M 10.5938,45.4062 H 73.1875 V 37.2031 H 10.5938 Z m 0,-19.9218 H 73.1875 V 17.1875 H 10.5938 Z" />
      <path
         style="stroke-linecap:butt;stroke-linejoin:round"
         inkscape:connector-curvature="0"
         id="DejaVuSans-2c"
         d="M 11.7188,12.4062 H 22.0156 V 4 l -8,-15.625 H 7.71875 L 11.7188,4 Z" />
      <path
         style="stroke-linecap:butt;stroke-linejoin:round"
         inkscape:connector-curvature="0"
         id="Cmmi10-c1"
         d="m 19.3906,-19.4844 4.4844,18.06252 q -5.0781,0 -9.4688,2.375005 -4.3906,2.374995 -7.06245,6.609375 -2.65625,4.25 -2.65625,9.2344 0,5.4219 2.6875,10.3437 2.6875,4.9375 7.3438,8.9688 4.6718,4.0312 10.0312,6.2031 5.375,2.1719 10.6562,2.1719 l 6,24.3125 q 0.2032,0.5937 0.7813,0.5937 h 1.2187 q 0.3907,0 0.625,-0.3437 0.25,-0.3438 0.25,-0.6407 l -6,-23.9218 q 3.7657,0 7.2813,-1.375 Q 49.0781,41.75 51.7812,39.2812 54.5,36.8125 56,33.4688 q 1.5156,-3.3438 1.5156,-7.1563 0,-5.4063 -2.6875,-10.3437 Q 52.1562,11.0312 47.6094,7.07812 43.0625,3.125 37.4688,0.84375 31.8906,-1.42188 26.8125,-1.42188 L 22.2188,-19.9219 q -0.2032,-0.5937 -0.8282,-0.5937 h -1.1718 q -0.3907,0 -0.6094,0.375 -0.2188,0.3594 -0.2188,0.6562 m 5.125,20.70315 10.2032,40.67185 q -2.5469,0 -5.3282,-1.0312 -2.7812,-1.0156 -5.25,-2.5782 -2.4531,-1.5624 -4.4687,-3.5624 -2.4375,-2.4376 -4.2969,-5.7657 -1.8438,-3.3125 -2.7969,-7 -0.9531,-3.6875 -0.9531,-7.25 0,-3.7656 1.6094,-6.84372 Q 14.8438,4.78125 17.7656,3 q 2.9375,-1.78125 6.75,-1.78125 m 2.9688,0 q 3.7656,0 8.0156,2.14063 4.25,2.15624 6.9844,5.04687 3.75,3.70315 5.9218,9.09375 2.1876,5.4062 2.1876,10.9219 0,3.7031 -1.625,6.7969 -1.6094,3.1093 -4.5469,4.8906 -2.9219,1.7812 -6.7188,1.7812 z" />
    </defs>
    <defs
       id="defs26">
      <path
         inkscape:connector-curvature="0"
         style="stroke:#000000;stroke-width:0.5;stroke-linecap:butt;stroke-linejoin:round"
         id="md21b4ff0a3"
         d="M 0,3 C 0.795609,3 1.55874,2.6839 2.12132,2.12132 2.6839,1.55874 3,0.795609 3,0 3,-0.795609 2.6839,-1.55874 2.12132,-2.12132 1.55874,-2.6839 0.795609,-3 0,-3 -0.795609,-3 -1.55874,-2.6839 -2.12132,-2.12132 -2.6839,-1.55874 -3,-0.795609 -3,0 -3,0.795609 -2.6839,1.55874 -2.12132,2.12132 -1.55874,2.6839 -0.795609,3 0,3 Z" />
    </defs>
    <style
       id="style5699"
       type="text/css">
*{stroke-linecap:butt;stroke-linejoin:round;}
  </style>
    <defs
       id="defs6191">
      <path
         style="stroke-linecap:butt;stroke-linejoin:round"
         inkscape:connector-curvature="0"
         d="m 4.89062,0 q -0.98437,0 -0.98437,1.3125 0.04687,0.25 0.1875,0.85938 0.15625,0.60937 0.42187,0.96874 0.26563,0.375 0.65626,0.375 6.10932,0 8.54692,0.6875 1.2656,0.4375 1.8593,2.6875 L 29.2969,61.8125 q 0.2031,0.9844 0.2031,1.375 0,1.0781 -1.1719,1.2187 -1.9062,0.3907 -7.2343,0.3907 -0.9688,0 -0.9688,1.3125 0.0469,0.25 0.1875,0.8594 0.1406,0.6093 0.4063,0.9687 0.2812,0.375 0.6718,0.375 h 35.9375 q 6.9844,0 12.2031,-3.3906 5.2188,-3.3907 8,-9.1407 2.7969,-5.7343 2.7969,-12.6718 0,-7.6563 -3.1875,-15.3282 Q 73.9688,20.125 68.25,13.7656 62.5469,7.42188 55.2188,3.70312 47.9062,0 40.1875,0 Z M 23.5781,4.29688 q 0,-0.78126 3.4219,-0.78126 h 11.625 q 5.5625,0 10.7344,2.29688 5.1875,2.29688 9.2344,6.2969 3.7656,3.7656 6.6406,9.8594 2.875,6.1093 4.4687,12.75 1.5938,6.6406 1.5938,12.2031 0,4.0625 -1.2031,7.3281 -1.2032,3.2656 -3.375,5.6094 -2.1719,2.3437 -5.4376,3.6406 -3.2656,1.2969 -7.375,1.2969 H 42.9219 q -2.7344,0 -3.625,-0.4688 -0.875,-0.4531 -1.5938,-2.9531 L 24.0312,6.5 Q 23.5781,5.28125 23.5781,4.29688"
         id="Cmmi10-44-0" />
      <path
         style="stroke-linecap:butt;stroke-linejoin:round"
         inkscape:connector-curvature="0"
         d="M 10.6875,12.4062 H 21 V 0 H 10.6875 Z"
         id="DejaVuSans-2e-5" />
      <path
         style="stroke-linecap:butt;stroke-linejoin:round"
         inkscape:connector-curvature="0"
         d="M 4.98438,0 Q 4,0 4,1.3125 q 0.04688,0.25 0.1875,0.82812 0.15625,0.59376 0.39062,0.98438 0.25,0.39062 0.75,0.39062 2.82813,0 4.92188,0.14063 2.1094,0.15625 3.5625,0.54687 1.1719,0.4375 1.9063,2.6875 L 29.3906,61.8125 q 0.2032,0.9844 0.2032,1.375 0,1.0781 -1.1719,1.2187 -1.9063,0.3907 -7.2344,0.3907 -0.9687,0 -0.9687,1.3125 0.0468,0.25 0.1874,0.8594 0.1563,0.6093 0.4219,0.9687 0.2657,0.375 0.6563,0.375 h 35.8437 q 3.2657,0 6.4688,-0.8125 3.2031,-0.7969 5.9062,-2.5625 2.7031,-1.75 4.2969,-4.375 1.5938,-2.6094 1.5938,-6.0625 0,-3.7656 -1.9376,-7 -1.9218,-3.2188 -4.9843,-5.6094 -3.0469,-2.3906 -6.5938,-3.9375 -3.5312,-1.5312 -7.3906,-2.2656 2.7344,0 5.5313,-1.0781 2.8124,-1.0625 5.0156,-2.9219 2.2031,-1.8594 3.5468,-4.4531 1.3438,-2.5782 1.3438,-5.5469 0,-6.0156 -4.2031,-11 Q 61.7188,5.71875 55.3438,2.85938 48.9688,0 43.0156,0 Z M 23.3906,4.29688 q 0,-0.78126 3.4219,-0.78126 h 14.2969 q 4.8906,0 9.375,2.70313 4.5,2.71875 7.2031,7.20315 2.7187,4.5 2.7187,9.375 0,2.9843 -1.25,5.6406 -1.25,2.6719 -3.5937,4.2031 -2.3437,1.5469 -5.3594,1.5469 H 30.7188 L 23.7812,6.5 Q 23.3906,5.125 23.3906,4.29688 m 8,32.51562 h 15.1875 q 4.7969,0 9.3125,2.4375 4.5156,2.4531 7.3594,6.6406 2.8594,4.2032 2.8594,8.8906 0,4.3438 -2.7188,7.1719 -2.7031,2.8438 -7,2.8438 H 42.6719 q -2.6875,0 -3.6094,-0.5 Q 38.1406,63.8125 37.5,61.375 Z"
         id="Cmmi10-42-7" />
      <path
         style="stroke-linecap:butt;stroke-linejoin:round"
         inkscape:connector-curvature="0"
         d="M 11.7188,12.4062 H 22.0156 V 4 l -8,-15.625 H 7.71875 L 11.7188,4 Z"
         id="DejaVuSans-2c-2" />
      <path
         style="stroke-linecap:butt;stroke-linejoin:round"
         inkscape:connector-curvature="0"
         d="m 19.3906,-19.4844 4.4844,18.06252 q -5.0781,0 -9.4688,2.375005 -4.3906,2.374995 -7.06245,6.609375 -2.65625,4.25 -2.65625,9.2344 0,5.4219 2.6875,10.3437 2.6875,4.9375 7.3438,8.9688 4.6718,4.0312 10.0312,6.2031 5.375,2.1719 10.6562,2.1719 l 6,24.3125 q 0.2032,0.5937 0.7813,0.5937 h 1.2187 q 0.3907,0 0.625,-0.3437 0.25,-0.3438 0.25,-0.6407 l -6,-23.9218 q 3.7657,0 7.2813,-1.375 Q 49.0781,41.75 51.7812,39.2812 54.5,36.8125 56,33.4688 q 1.5156,-3.3438 1.5156,-7.1563 0,-5.4063 -2.6875,-10.3437 Q 52.1562,11.0312 47.6094,7.07812 43.0625,3.125 37.4688,0.84375 31.8906,-1.42188 26.8125,-1.42188 L 22.2188,-19.9219 q -0.2032,-0.5937 -0.8282,-0.5937 h -1.1718 q -0.3907,0 -0.6094,0.375 -0.2188,0.3594 -0.2188,0.6562 m 5.125,20.70315 10.2032,40.67185 q -2.5469,0 -5.3282,-1.0312 -2.7812,-1.0156 -5.25,-2.5782 -2.4531,-1.5624 -4.4687,-3.5624 -2.4375,-2.4376 -4.2969,-5.7657 -1.8438,-3.3125 -2.7969,-7 -0.9531,-3.6875 -0.9531,-7.25 0,-3.7656 1.6094,-6.84372 Q 14.8438,4.78125 17.7656,3 q 2.9375,-1.78125 6.75,-1.78125 m 2.9688,0 q 3.7656,0 8.0156,2.14063 4.25,2.15624 6.9844,5.04687 3.75,3.70315 5.9218,9.09375 2.1876,5.4062 2.1876,10.9219 0,3.7031 -1.625,6.7969 -1.6094,3.1093 -4.5469,4.8906 -2.9219,1.7812 -6.7188,1.7812 z"
         id="Cmmi10-c1-6" />
      <path
         style="stroke-linecap:butt;stroke-linejoin:round"
         inkscape:connector-curvature="0"
         d="M 10.5938,45.4062 H 73.1875 V 37.2031 H 10.5938 Z m 0,-19.9218 H 73.1875 V 17.1875 H 10.5938 Z"
         id="DejaVuSans-3d-4" />
    </defs>
    <style
       id="style7733"
       type="text/css">
*{stroke-linecap:butt;stroke-linejoin:round;}
  </style>
    <defs
       id="defs8657">
      <path
         style="stroke-linecap:butt;stroke-linejoin:round"
         inkscape:connector-curvature="0"
         d="m 4.89062,0 q -0.98437,0 -0.98437,1.3125 0.04687,0.25 0.1875,0.85938 0.15625,0.60937 0.42187,0.96874 0.26563,0.375 0.65626,0.375 6.10932,0 8.54692,0.6875 1.2656,0.4375 1.8593,2.6875 L 29.2969,61.8125 q 0.2031,0.9844 0.2031,1.375 0,1.0781 -1.1719,1.2187 -1.9062,0.3907 -7.2343,0.3907 -0.9688,0 -0.9688,1.3125 0.0469,0.25 0.1875,0.8594 0.1406,0.6093 0.4063,0.9687 0.2812,0.375 0.6718,0.375 h 35.9375 q 6.9844,0 12.2031,-3.3906 5.2188,-3.3907 8,-9.1407 2.7969,-5.7343 2.7969,-12.6718 0,-7.6563 -3.1875,-15.3282 Q 73.9688,20.125 68.25,13.7656 62.5469,7.42188 55.2188,3.70312 47.9062,0 40.1875,0 Z M 23.5781,4.29688 q 0,-0.78126 3.4219,-0.78126 h 11.625 q 5.5625,0 10.7344,2.29688 5.1875,2.29688 9.2344,6.2969 3.7656,3.7656 6.6406,9.8594 2.875,6.1093 4.4687,12.75 1.5938,6.6406 1.5938,12.2031 0,4.0625 -1.2031,7.3281 -1.2032,3.2656 -3.375,5.6094 -2.1719,2.3437 -5.4376,3.6406 -3.2656,1.2969 -7.375,1.2969 H 42.9219 q -2.7344,0 -3.625,-0.4688 -0.875,-0.4531 -1.5938,-2.9531 L 24.0312,6.5 Q 23.5781,5.28125 23.5781,4.29688"
         id="Cmmi10-44-1" />
      <path
         style="stroke-linecap:butt;stroke-linejoin:round"
         inkscape:connector-curvature="0"
         d="M 10.6875,12.4062 H 21 V 0 H 10.6875 Z"
         id="DejaVuSans-2e-9" />
      <path
         style="stroke-linecap:butt;stroke-linejoin:round"
         inkscape:connector-curvature="0"
         d="M 40.5781,39.3125 Q 47.6562,37.7969 51.625,33 q 3.9844,-4.7812 3.9844,-11.8125 0,-10.7813 -7.4219,-16.70312 -7.4219,-5.90626 -21.0937,-5.90626 -4.5782,0 -9.4376,0.906255 Q 12.7969,0.390625 7.625,2.20312 v 9.51568 q 4.0938,-2.39068 8.9688,-3.60942 4.8906,-1.21876 10.2187,-1.21876 9.2656,0 14.125,3.65628 4.8594,3.6562 4.8594,10.6406 0,6.4531 -4.5157,10.0781 -4.5156,3.6406 -12.5624,3.6406 h -8.5 v 8.1094 h 8.8906 q 7.2656,0 11.125,2.9063 3.8594,2.9062 3.8594,8.375 0,5.6093 -3.9844,8.6093 -3.9688,3.0157 -11.3906,3.0157 -4.0626,0 -8.7032,-0.8907 -4.6406,-0.875 -10.2031,-2.7187 v 8.7813 q 5.625,1.5624 10.5313,2.3437 4.9062,0.7813 9.25,0.7813 11.2343,0 17.7656,-5.1094 6.5468,-5.0938 6.5468,-13.7813 0,-6.0625 -3.4687,-10.2343 -3.4687,-4.1719 -9.8594,-5.7813"
         id="DejaVuSans-33" />
      <path
         style="stroke-linecap:butt;stroke-linejoin:round"
         inkscape:connector-curvature="0"
         d="M 11.7188,12.4062 H 22.0156 V 4 l -8,-15.625 H 7.71875 L 11.7188,4 Z"
         id="DejaVuSans-2c-8" />
      <path
         style="stroke-linecap:butt;stroke-linejoin:round"
         inkscape:connector-curvature="0"
         d="m 19.3906,-19.4844 4.4844,18.06252 q -5.0781,0 -9.4688,2.375005 -4.3906,2.374995 -7.06245,6.609375 -2.65625,4.25 -2.65625,9.2344 0,5.4219 2.6875,10.3437 2.6875,4.9375 7.3438,8.9688 4.6718,4.0312 10.0312,6.2031 5.375,2.1719 10.6562,2.1719 l 6,24.3125 q 0.2032,0.5937 0.7813,0.5937 h 1.2187 q 0.3907,0 0.625,-0.3437 0.25,-0.3438 0.25,-0.6407 l -6,-23.9218 q 3.7657,0 7.2813,-1.375 Q 49.0781,41.75 51.7812,39.2812 54.5,36.8125 56,33.4688 q 1.5156,-3.3438 1.5156,-7.1563 0,-5.4063 -2.6875,-10.3437 Q 52.1562,11.0312 47.6094,7.07812 43.0625,3.125 37.4688,0.84375 31.8906,-1.42188 26.8125,-1.42188 L 22.2188,-19.9219 q -0.2032,-0.5937 -0.8282,-0.5937 h -1.1718 q -0.3907,0 -0.6094,0.375 -0.2188,0.3594 -0.2188,0.6562 m 5.125,20.70315 10.2032,40.67185 q -2.5469,0 -5.3282,-1.0312 -2.7812,-1.0156 -5.25,-2.5782 -2.4531,-1.5624 -4.4687,-3.5624 -2.4375,-2.4376 -4.2969,-5.7657 -1.8438,-3.3125 -2.7969,-7 -0.9531,-3.6875 -0.9531,-7.25 0,-3.7656 1.6094,-6.84372 Q 14.8438,4.78125 17.7656,3 q 2.9375,-1.78125 6.75,-1.78125 m 2.9688,0 q 3.7656,0 8.0156,2.14063 4.25,2.15624 6.9844,5.04687 3.75,3.70315 5.9218,9.09375 2.1876,5.4062 2.1876,10.9219 0,3.7031 -1.625,6.7969 -1.6094,3.1093 -4.5469,4.8906 -2.9219,1.7812 -6.7188,1.7812 z"
         id="Cmmi10-c1-0" />
      <path
         style="stroke-linecap:butt;stroke-linejoin:round"
         inkscape:connector-curvature="0"
         d="M 10.5938,45.4062 H 73.1875 V 37.2031 H 10.5938 Z m 0,-19.9218 H 73.1875 V 17.1875 H 10.5938 Z"
         id="DejaVuSans-3d-46" />
      <path
         style="stroke-linecap:butt;stroke-linejoin:round"
         inkscape:connector-curvature="0"
         d="M 4.98438,0 Q 4,0 4,1.3125 q 0.04688,0.25 0.1875,0.82812 0.15625,0.59376 0.39062,0.98438 0.25,0.39062 0.75,0.39062 2.82813,0 4.92188,0.14063 2.1094,0.15625 3.5625,0.54687 1.1719,0.4375 1.9063,2.6875 L 29.3906,61.8125 q 0.2032,0.9844 0.2032,1.375 0,1.0781 -1.1719,1.2187 -1.9063,0.3907 -7.2344,0.3907 -0.9687,0 -0.9687,1.3125 0.0468,0.25 0.1874,0.8594 0.1563,0.6093 0.4219,0.9687 0.2657,0.375 0.6563,0.375 h 35.8437 q 3.2657,0 6.4688,-0.8125 3.2031,-0.7969 5.9062,-2.5625 2.7031,-1.75 4.2969,-4.375 1.5938,-2.6094 1.5938,-6.0625 0,-3.7656 -1.9376,-7 -1.9218,-3.2188 -4.9843,-5.6094 -3.0469,-2.3906 -6.5938,-3.9375 -3.5312,-1.5312 -7.3906,-2.2656 2.7344,0 5.5313,-1.0781 2.8124,-1.0625 5.0156,-2.9219 2.2031,-1.8594 3.5468,-4.4531 1.3438,-2.5782 1.3438,-5.5469 0,-6.0156 -4.2031,-11 Q 61.7188,5.71875 55.3438,2.85938 48.9688,0 43.0156,0 Z M 23.3906,4.29688 q 0,-0.78126 3.4219,-0.78126 h 14.2969 q 4.8906,0 9.375,2.70313 4.5,2.71875 7.2031,7.20315 2.7187,4.5 2.7187,9.375 0,2.9843 -1.25,5.6406 -1.25,2.6719 -3.5937,4.2031 -2.3437,1.5469 -5.3594,1.5469 H 30.7188 L 23.7812,6.5 Q 23.3906,5.125 23.3906,4.29688 m 8,32.51562 h 15.1875 q 4.7969,0 9.3125,2.4375 4.5156,2.4531 7.3594,6.6406 2.8594,4.2032 2.8594,8.8906 0,4.3438 -2.7188,7.1719 -2.7031,2.8438 -7,2.8438 H 42.6719 q -2.6875,0 -3.6094,-0.5 Q 38.1406,63.8125 37.5,61.375 Z"
         id="Cmmi10-42-6" />
    </defs>
    <defs
       id="defs7750">
      <path
         inkscape:connector-curvature="0"
         d="m 0,-3 -0.673542,2.072949 H -2.85317 L -1.08981,0.354102 -1.76336,2.42705 0,1.1459 1.76336,2.42705 1.08981,0.354102 2.85317,-0.927051 H 0.673542 Z"
         id="m11ac47eaca"
         style="stroke:#000000;stroke-width:0.5;stroke-linecap:butt;stroke-linejoin:bevel" />
    </defs>
    <filter
       inkscape:collect="always"
       style="color-interpolation-filters:sRGB;stroke-linecap:butt;stroke-linejoin:round"
       id="filter4330"
       x="-0.1081301"
       width="1.2162602"
       y="-0.13317639"
       height="1.2663528">
      <feGaussianBlur
         inkscape:collect="always"
         stdDeviation="17.879568"
         id="feGaussianBlur4332"
         style="stroke-linecap:butt;stroke-linejoin:round" />
    </filter>
    <filter
       inkscape:collect="always"
       style="color-interpolation-filters:sRGB;stroke-linecap:butt;stroke-linejoin:round"
       id="filter4425"
       x="-0.090851381"
       width="1.1817029"
       y="-0.17668845"
       height="1.3533769">
      <feGaussianBlur
         inkscape:collect="always"
         stdDeviation="3.4415953"
         id="feGaussianBlur4427"
         style="stroke-linecap:butt;stroke-linejoin:round" />
    </filter>
    <filter
       inkscape:collect="always"
       style="color-interpolation-filters:sRGB;stroke-linecap:butt;stroke-linejoin:round"
       id="filter4433"
       x="-0.0908527"
       width="1.1817054"
       y="-0.17668346"
       height="1.3533669">
      <feGaussianBlur
         inkscape:collect="always"
         stdDeviation="3.441618"
         id="feGaussianBlur4435"
         style="stroke-linecap:butt;stroke-linejoin:round" />
    </filter>
    <radialGradient
       inkscape:collect="always"
       xlink:href="#linearGradient4368"
       id="radialGradient4783"
       gradientUnits="userSpaceOnUse"
       gradientTransform="matrix(-3.4124452e-4,0.05981148,-0.09263208,-5.3035525e-4,11.963466,3.2523441)"
       cx="56.072598"
       cy="44.250137"
       fx="56.072598"
       fy="44.250137"
       r="204.22871" />
    <radialGradient
       inkscape:collect="always"
       xlink:href="#linearGradient4368"
       id="radialGradient4785"
       gradientUnits="userSpaceOnUse"
       gradientTransform="matrix(0.02996581,0.02261171,-0.04487257,0.0594654,8.1637496,79.402145)"
       cx="1075.0796"
       cy="-602.66077"
       fx="1075.0796"
       fy="-602.66077"
       r="204.22871" />
    <linearGradient
       inkscape:collect="always"
       xlink:href="#linearGradient4359"
       id="linearGradient4787"
       gradientUnits="userSpaceOnUse"
       gradientTransform="matrix(0.16218923,0,0,0.16218923,-11.719689,0.97502108)"
       x1="227.97458"
       y1="691.84906"
       x2="227.97458"
       y2="292.89349" />
    <linearGradient
       inkscape:collect="always"
       xlink:href="#linearGradient4296"
       id="linearGradient4789"
       gradientUnits="userSpaceOnUse"
       x1="514.13861"
       y1="-44.488976"
       x2="279.71564"
       y2="-232.89227" />
    <linearGradient
       inkscape:collect="always"
       xlink:href="#linearGradient4296"
       id="linearGradient4791"
       gradientUnits="userSpaceOnUse"
       x1="471.87506"
       y1="-78.45575"
       x2="337.19406"
       y2="-186.69746" />
    <linearGradient
       inkscape:collect="always"
       xlink:href="#linearGradient4434"
       id="linearGradient4793"
       gradientUnits="userSpaceOnUse"
       x1="198.34358"
       y1="-341.36197"
       x2="549.41272"
       y2="-59.211342" />
    <linearGradient
       inkscape:collect="always"
       xlink:href="#linearGradient4434"
       id="linearGradient4795"
       gradientUnits="userSpaceOnUse"
       x1="198.34358"
       y1="-341.36197"
       x2="549.41272"
       y2="-59.211342" />
    <radialGradient
       inkscape:collect="always"
       xlink:href="#linearGradient4348"
       id="radialGradient4797"
       gradientUnits="userSpaceOnUse"
       gradientTransform="matrix(0.30219636,0.42066677,-0.90739292,0.42103977,-245.21242,-300.50234)"
       cx="213.97231"
       cy="-389.35092"
       fx="213.97231"
       fy="-389.35092"
       r="191.19141" />
    <radialGradient
       inkscape:collect="always"
       xlink:href="#linearGradient4348"
       id="radialGradient4799"
       gradientUnits="userSpaceOnUse"
       gradientTransform="matrix(0.12243167,0.13991031,-0.29532637,0.16692562,183.54592,-142.1746)"
       cx="935.20312"
       cy="-449.63297"
       fx="935.20312"
       fy="-449.63297"
       r="191.19141" />
    <linearGradient
       inkscape:collect="always"
       xlink:href="#linearGradient4622"
       id="linearGradient4801"
       gradientUnits="userSpaceOnUse"
       x1="297.56653"
       y1="-71.589592"
       x2="297.56653"
       y2="-54.548664" />
    <linearGradient
       inkscape:collect="always"
       xlink:href="#linearGradient4630"
       id="linearGradient4803"
       gradientUnits="userSpaceOnUse"
       x1="302.1445"
       y1="-29.879274"
       x2="302.1445"
       y2="-26.330183" />
    <linearGradient
       inkscape:collect="always"
       xlink:href="#linearGradient4602"
       id="linearGradient4805"
       gradientUnits="userSpaceOnUse"
       x1="286.61276"
       y1="-68.71032"
       x2="286.61276"
       y2="-54.096489" />
    <linearGradient
       inkscape:collect="always"
       xlink:href="#linearGradient4594"
       id="linearGradient4807"
       gradientUnits="userSpaceOnUse"
       x1="284.25464"
       y1="-29.440853"
       x2="284.25464"
       y2="-25.96298" />
    <linearGradient
       inkscape:collect="always"
       xlink:href="#linearGradient4602"
       id="linearGradient4809"
       gradientUnits="userSpaceOnUse"
       x1="286.61276"
       y1="-68.71032"
       x2="286.61276"
       y2="-54.096489" />
    <linearGradient
       inkscape:collect="always"
       xlink:href="#linearGradient4594"
       id="linearGradient4811"
       gradientUnits="userSpaceOnUse"
       x1="284.25464"
       y1="-29.440853"
       x2="284.25464"
       y2="-25.96298" />
    <linearGradient
       inkscape:collect="always"
       xlink:href="#linearGradient4622"
       id="linearGradient4813"
       gradientUnits="userSpaceOnUse"
       x1="297.56653"
       y1="-71.589592"
       x2="297.56653"
       y2="-54.548664" />
    <linearGradient
       inkscape:collect="always"
       xlink:href="#linearGradient4630"
       id="linearGradient4815"
       gradientUnits="userSpaceOnUse"
       x1="302.1445"
       y1="-29.879274"
       x2="302.1445"
       y2="-26.330183" />
    <radialGradient
       inkscape:collect="always"
       xlink:href="#linearGradient4479"
       id="radialGradient4817"
       gradientUnits="userSpaceOnUse"
       gradientTransform="matrix(0,0.10321133,-0.16218923,2.2681574e-8,32.097579,-0.2799916)"
       cx="127.22529"
       cy="67.607956"
       fx="127.22529"
       fy="67.607956"
       r="43.60392" />
    <radialGradient
       inkscape:collect="always"
       xlink:href="#linearGradient4479"
       id="radialGradient4819"
       gradientUnits="userSpaceOnUse"
       gradientTransform="matrix(0,0.10321133,-0.16218923,2.2681574e-8,19.444242,-7.0233861)"
       cx="127.22529"
       cy="67.607956"
       fx="127.22529"
       fy="67.607956"
       r="43.60392" />
  </defs>
  <defs
     id="defs556">
    <clipPath
       id="p5873ec822d"
       style="stroke-linecap:butt;stroke-linejoin:round">
      <rect
         height="352.79999"
         width="453.375"
         x="73.125"
         y="44.099998"
         id="rect559"
         style="stroke-linecap:butt;stroke-linejoin:round" />
    </clipPath>
  </defs>
  <g
     style="stroke-linecap:butt;stroke-linejoin:round"
     id="line2d_128"
     transform="translate(-177.66408,1332.8986)" />
  <g
     style="stroke-linecap:butt;stroke-linejoin:round"
     id="line2d_130"
     transform="translate(-177.66408,1332.8986)" />
  <g
     id="g4226"
     transform="matrix(-0.8660254,-0.5,-0.5,0.8660254,1218.3058,651.23537)"
     style="stroke-linecap:butt;stroke-linejoin:round" />
  <rect
     style="opacity:1;fill:#e6e6e6;fill-opacity:1;stroke:none;stroke-width:1.29751384;stroke-linecap:round;stroke-linejoin:bevel;stroke-miterlimit:4;stroke-dasharray:none;stroke-dashoffset:0;stroke-opacity:1"
     id="rect4649"
     width="64.226936"
     height="64.226936"
     x="5.6989446"
     y="5.4185133"
     ry="8.3774271" />
  <path
     inkscape:connector-curvature="0"
     id="path4651"
     d="m 13.816874,5.1589225 v 0.00785 c -0.07396,0.00239 -0.149158,0.00239 -0.222249,0.00635 l -0.06158,0.00307 -0.05347,0.030665 C 10.802677,6.7447567 8.096527,8.2995361 6.9453726,8.9605337 l -0.053472,0.030666 -0.033961,0.051698 C 6.6212784,9.4025021 6.411402,9.7806843 6.2299643,10.174927 l -0.3395837,0.73847 0.05043,-0.02889 -0.013171,0.03776 c -0.075263,0.214566 -0.1432845,0.433318 -0.2019777,0.65636 l -0.050174,0.191341 9.5202541,5.511648 c -5.4224118,3.115714 -8.1750956,4.696088 -9.6259304,5.52913 l -0.1305119,0.07476 v 1.346678 L 5.8283008,24.009171 C 7.1860274,23.229609 10.263964,21.462047 16.362744,17.957487 l 10.152033,5.87784 c -4.546836,2.614619 -8.74184,5.025778 -12.325116,7.084577 L 5.4392997,25.854022 v 1.349212 l 7.5803193,4.388995 c -4.0065057,2.301715 -6.0625037,3.4824 -7.4498074,4.279009 l -0.1305119,0.07476 v 1.346425 l 0.3890011,-0.223264 c 1.2954607,-0.743838 3.5750624,-2.05243 8.3590802,-4.801056 l 10.15254,5.877841 C 19.13552,41.138236 15.635322,43.149907 12.01354,45.230319 L 5.4392997,41.424193 v 1.349212 l 5.4039423,3.128984 C 8.478202,47.2608 6.9480519,48.13971 5.5698116,48.931272 l -0.1305119,0.07476 v 1.34693 l 0.3890011,-0.223516 c 1.3599275,-0.781078 3.1924048,-1.833265 6.1827032,-3.55093 l 10.153299,5.878091 c -5.759711,3.311094 -9.012148,5.180283 -12.3271418,7.084119 l -4.3978615,-2.54637 v 1.349464 l 3.2278185,1.868725 c -1.0582067,0.607729 -1.9168237,1.100678 -3.046624,1.749618 l -0.1469824,0.08439 0.018246,0.168523 c 0.025994,0.240092 0.061979,0.476483 0.1069446,0.709578 l 0.069183,0.357071 0.3150005,-0.180943 c 1.2817801,-0.73623 2.3885512,-1.372436 3.8514883,-2.212615 l 10.1543128,5.878854 c -2.148988,1.235118 -2.992144,1.719212 -4.617831,2.653313 l -0.843131,0.484542 h 2.343887 l 0.05981,-0.03447 c 1.551933,-0.891795 2.136045,-1.226827 4.224523,-2.427263 l 4.251637,2.461729 h 2.330964 L 22.325478,66.77082 c 3.889851,-2.236109 7.960778,-4.577362 12.321568,-7.086656 l 10.142907,5.87201 c -2.069552,1.192511 -4.089968,2.357528 -6.198666,3.571457 -0.173341,0.09979 -0.336947,0.193855 -0.509125,0.292954 l -0.841609,0.484289 h 2.340593 l 0.05981,-0.03447 c 2.136477,-1.230194 4.204992,-2.422961 6.315243,-3.638866 l 6.344388,3.673332 h 2.330961 l -7.507333,-4.346418 c 4.41715,-2.545533 8.519187,-4.912616 12.301292,-7.098568 l 10.107176,5.851737 -0.534716,0.311708 c -1.688502,0.984068 -3.618021,2.105553 -5.984021,3.47541 -0.670624,0.388291 -1.51847,0.877138 -2.288391,1.321842 l -0.838314,0.484289 h 1.661173 c 0.228136,0 0.451362,-0.01144 0.670805,-0.02814 l 0.0593,-0.0043 0.05094,-0.02964 c 0.410101,-0.237019 0.897108,-0.51797 1.269638,-0.733653 1.928229,-1.11643 3.544274,-2.055152 5.021786,-2.914843 l 0.05144,-0.02991 0.03319,-0.04865 c 0.248305,-0.366763 0.467805,-0.754247 0.657883,-1.157881 l 0.355548,-0.75494 -0.05322,0.03118 0.05804,-0.170552 c 0.07311,-0.215037 0.139825,-0.434555 0.196652,-0.6594 l 0.04815,-0.189811 -9.375549,-5.42827 c 1.001083,-0.578351 2.124371,-1.226458 3.006075,-1.736945 2.565086,-1.485151 4.664819,-2.705496 6.457413,-3.750628 l 0.12899,-0.07501 v -1.352001 l -0.390268,0.227826 c -1.841139,1.074308 -4.062288,2.365187 -6.781282,3.939424 -1.051395,0.608737 -2.416738,1.395658 -3.587424,2.07222 l -10.12974,-5.864668 c 4.455008,-2.568222 8.619164,-4.971731 12.299012,-7.10034 l 8.589694,4.973376 V 47.76985 l -7.422945,-4.297507 c 0.28903,-0.166871 0.591016,-0.341114 0.836542,-0.483271 2.565093,-1.485154 4.664826,-2.705417 6.457413,-3.750628 l 0.12899,-0.07501 v -1.351998 l -0.390268,0.227826 c -1.841139,1.074291 -4.062288,2.36517 -6.781282,3.939425 -0.415032,0.240297 -0.962588,0.556175 -1.416877,0.818801 l -10.126935,-5.86316 c 4.413701,-2.545355 8.612997,-4.969603 12.128965,-7.005308 0.06121,-0.03543 0.113883,-0.06572 0.167004,-0.09655 l 6.419399,3.716666 V 32.199672 L 64.929804,29.15685 c 1.945487,-1.127567 3.665942,-2.127049 5.1267,-2.978452 l 0.128989,-0.07502 V 24.75138 l -0.390267,0.227826 c -1.664393,0.970907 -3.664962,2.133438 -6.030146,3.503542 l -10.123902,-5.86137 c 3.581021,-2.066056 7.038322,-4.062005 9.957912,-5.752395 0.853804,-0.494339 1.566523,-0.908258 2.33274,-1.35276 l 4.253663,2.462743 V 16.629502 L 67.095789,14.84035 c 1.072833,-0.623212 1.994941,-1.160393 2.915605,-1.696902 l 0.144704,-0.08414 -0.01748,-0.166748 c -0.02496,-0.242329 -0.06162,-0.479566 -0.105423,-0.712623 l -0.06791,-0.361627 -0.317538,0.185502 c -1.135216,0.661824 -2.288995,1.334104 -3.716414,2.162437 L 55.81122,8.3076772 c 1.592428,-0.919407 3.081014,-1.779853 4.612258,-2.6644659 l 0.838061,-0.4840327 h -2.334006 l -0.06006,0.034463 c -1.42731,0.8243951 -2.74743,1.5878522 -4.221735,2.4389243 L 50.37332,5.1591786 h -2.330455 l 5.435871,3.1472316 C 49.551544,10.572649 45.45173,12.936129 41.171109,15.401177 L 31.025412,9.5271377 C 33.261876,8.2406605 35.501234,6.9524759 37.775778,5.643464 L 38.61764,5.1591786 h -2.341352 l -0.05981,0.034463 C 34.084805,6.4202595 31.960682,7.6422846 29.85841,8.8515177 L 23.480824,5.1591786 H 21.14986 l 0.836035,0.4840327 6.703231,3.8811365 C 24.221075,12.094174 20.051273,14.491075 16.365278,16.609232 L 6.2094454,10.729872 6.5948979,10.508634 C 7.8230564,9.8034785 11.437333,7.7270825 15.063709,5.643464 L 15.90684,5.1589259 H 13.816881 Z M 54.64472,8.9812653 64.766341,14.842127 c -0.570934,0.331234 -1.111168,0.644954 -1.752404,1.016218 -3.089394,1.788731 -6.725115,3.888096 -10.538244,6.087925 L 42.337342,16.076285 C 46.621931,13.608771 50.729869,11.24063 54.64472,8.9812653 Z M 29.856374,10.199968 40.002325,16.07426 c -0.470172,0.270904 -0.931048,0.536894 -1.411044,0.813225 -3.714957,2.138632 -7.35996,4.234878 -10.907735,6.275203 L 17.532528,17.285357 c 3.721328,-2.138574 7.847041,-4.510406 12.323846,-7.085389 z m 11.312447,6.549656 10.139614,5.870238 c -3.947153,2.276582 -8.118921,4.680412 -12.310417,7.093496 l -10.14747,-5.875306 c 3.370135,-1.938241 6.806981,-3.914906 10.322837,-5.938911 0.678963,-0.390865 1.322213,-0.761763 1.995436,-1.149517 z m 11.305857,6.545602 10.125169,5.862128 c -3.597706,2.082543 -7.810757,4.514798 -12.296225,7.101354 L 40.164514,30.388726 c 4.204155,-2.420509 8.374093,-4.823102 12.310164,-7.0935 z m -24.792906,1.21566 10.147219,5.875306 c -4.20347,2.419671 -8.384798,4.824994 -12.319794,7.087667 L 15.356912,31.59577 c 3.604728,-2.071281 7.823294,-4.496112 12.32486,-7.084884 z m 11.314221,6.550673 10.139361,5.870488 c -3.439714,1.983188 -6.957192,4.010454 -10.54433,6.075506 -0.601964,0.346537 -1.171048,0.673431 -1.767607,1.016727 L 26.676198,38.149732 c 3.950614,-2.271788 8.124046,-4.672804 12.319795,-7.088173 z m 11.306362,6.545856 10.127703,5.8639 c -3.714597,2.148224 -7.835487,4.526583 -12.299264,7.099578 l -10.140375,-5.87074 c 0.393136,-0.226167 0.780036,-0.448491 1.182966,-0.680435 3.785991,-2.179539 7.512506,-4.327107 11.12897,-6.412303 z m -24.795439,1.214898 10.147219,5.874797 c -4.287466,2.467476 -8.404022,4.835723 -12.320554,7.087418 L 13.180788,45.906435 c 3.63461,-2.087945 7.139159,-4.101647 12.326128,-7.084122 z m 11.314725,6.55067 10.140881,5.871252 c -2.768738,1.595782 -5.523585,3.183863 -8.371498,4.823355 -1.342597,0.772923 -2.612307,1.502891 -3.942211,2.268113 l -10.14823,-5.875558 c 3.929021,-2.258979 8.038419,-4.622333 12.321058,-7.087162 z m 11.307633,6.546364 10.129984,5.865672 C 54.452651,59.984706 50.38211,62.333881 45.95771,64.883334 L 35.816067,59.011323 c 1.125965,-0.647836 2.213745,-1.273231 3.357318,-1.931571 3.046776,-1.753982 5.999122,-3.456164 8.955889,-5.160405 z m -24.797975,1.213375 10.148485,5.875815 c -4.358987,2.508127 -8.448191,4.859989 -12.321821,7.086653 L 11.004158,60.216339 c 3.372453,-1.936964 6.538892,-3.755954 12.327141,-7.083617 z"
     style="color:#000000;font-style:normal;font-variant:normal;font-weight:normal;font-stretch:normal;font-size:medium;line-height:normal;font-family:sans-serif;text-indent:0;text-align:start;text-decoration:none;text-decoration-line:none;text-decoration-style:solid;text-decoration-color:#000000;letter-spacing:normal;word-spacing:normal;text-transform:none;writing-mode:lr-tb;direction:ltr;baseline-shift:baseline;text-anchor:start;white-space:normal;clip-rule:nonzero;display:inline;overflow:visible;visibility:visible;opacity:1;isolation:auto;mix-blend-mode:normal;color-interpolation:sRGB;color-interpolation-filters:linearRGB;solid-color:#000000;solid-opacity:1;fill:#999999;fill-opacity:1;fill-rule:evenodd;stroke:none;stroke-width:0.51900554;stroke-linecap:butt;stroke-linejoin:miter;stroke-miterlimit:4;stroke-dasharray:none;stroke-dashoffset:0;stroke-opacity:1;color-rendering:auto;image-rendering:auto;shape-rendering:auto;text-rendering:auto;enable-background:accumulate" />
  <path
     inkscape:connector-curvature="0"
     id="path4653"
     d="M 14.141258,5.4840071 C 12.912347,5.5556952 11.940409,6.6339923 10.813519,7.1125611 9.5648212,7.9406172 8.0433556,8.4845157 6.9615334,9.4864701 6.2323431,10.489872 7.290894,9.7312303 7.879404,9.3966627 c 2.270486,-1.3044291 4.540973,-2.6088583 6.81146,-3.9132908 -0.1828,6.83e-4 -0.367906,-0.00102 -0.549606,6.83e-4 z m 14.710437,3.7598132 c 1.099107,0.4860816 -1.126288,0.9673307 -1.547665,1.4511277 -3.646457,2.096192 -7.29279,4.1926 -10.939323,6.288655 -3.385439,-1.959977 -6.7709858,-3.919769 -10.1564667,-5.879677 -0.5051672,0.818733 0.9220238,0.934316 1.3884576,1.403576 2.7494921,1.591831 5.4990431,3.183559 8.2484971,4.775455 -3.360611,1.929857 -6.7209037,3.860271 -10.0813913,5.790344 -0.147773,1.265827 1.4474568,-0.479774 2.1095321,-0.613142 2.8300402,-1.62573 5.6600352,-3.251538 8.4901042,-4.877217 3.600132,2.084431 7.200239,4.168907 10.800473,6.253157 -4.324859,2.4862 -8.649813,4.972229 -12.974822,7.458169 -2.808383,-1.625982 -5.6168659,-3.251794 -8.4252873,-4.877712 -0.148165,1.096249 1.4442199,1.189061 2.1053564,1.818745 1.9332611,1.119442 3.8665269,2.238875 5.7997849,3.358321 -2.635193,1.513196 -5.2700709,3.02694 -7.9051413,4.540348 -0.1473229,1.26481 1.4477805,-0.480495 2.1096424,-0.613582 2.1049011,-1.208922 4.2097789,-2.417886 6.3146939,-3.626781 3.600235,2.084438 7.200458,4.16889 10.80079,6.253158 -4.325242,2.486162 -8.650676,4.971989 -12.976089,7.457851 -2.0829678,-1.20604 -4.1660325,-2.411916 -6.2490373,-3.617895 -0.148165,1.096249 1.4442192,1.189065 2.1053554,1.818748 1.2078449,0.699395 2.4156939,1.398786 3.6235359,2.098183 -1.9097728,1.096536 -3.8192392,2.193608 -5.7288913,3.290352 -0.1475507,1.265312 1.4476463,-0.480085 2.1096277,-0.613292 1.3793848,-0.792244 2.7587416,-1.584536 4.1381426,-2.376753 3.600545,2.084547 7.201101,4.169081 10.801739,6.253471 -4.325441,2.486183 -8.651104,4.971979 -12.9767218,7.457855 -1.3575669,-0.786183 -2.7151969,-1.572257 -4.0727875,-2.358399 -0.1483996,1.096498 1.4441584,1.189239 2.1054476,1.818906 1.0153806,0.481953 1.9271269,0.963561 0.3968069,1.441067 -0.7585483,0.538842 -1.8960733,0.88783 -2.430663,1.538867 0.043405,0.9374 1.2240826,-0.477743 1.7531453,-0.551429 0.8026471,-0.323401 1.6062197,-1.190905 2.4083387,-1.196857 3.5469528,2.053526 7.0937948,4.107248 10.6408178,6.160655 -1.631118,0.937745 -3.262605,1.874848 -4.89387,2.812336 1.540345,0.217547 2.663645,-1.127946 3.994177,-1.696749 0.808308,-0.542297 1.616716,-1.134915 2.422616,-0.233617 1.232802,0.594032 2.353434,1.605678 3.658579,1.930366 1.58357,0.15831 -0.823743,-0.755282 -1.25329,-1.137664 -0.963175,-0.557582 -1.926274,-1.115287 -2.889505,-1.67277 4.323718,-2.486907 8.647288,-4.974066 12.971339,-7.460389 3.596844,2.082451 7.193751,4.164789 10.790652,6.247137 -2.327928,1.341135 -4.655562,2.682865 -6.983641,4.023686 1.540232,0.217762 2.661519,-1.130694 3.991099,-1.700454 1.170215,-0.674493 2.340791,-1.348365 3.510788,-2.023247 2.20503,1.213963 4.351769,2.645636 6.593369,3.723701 1.796921,0.215625 -0.403158,-0.642345 -0.950711,-1.056445 -1.70783,-0.988756 -3.415605,-1.977594 -5.123463,-2.966292 4.317768,-2.488962 8.634627,-4.979506 12.950113,-7.472426 3.338341,1.933139 6.677027,3.865677 10.015501,5.798584 0.48576,-0.840804 -0.936932,-0.937711 -1.391928,-1.406134 -2.701459,-1.56404 -5.402929,-3.128064 -8.104377,-4.692118 3.309055,-1.909898 6.61491,-3.825297 9.916032,-5.74885 0.148427,-1.269174 -1.442072,0.48588 -2.102591,0.623563 -2.773789,1.614222 -5.552291,3.221266 -8.332319,4.825298 -3.592502,-2.080224 -7.185329,-4.159888 -10.777985,-6.239849 4.317344,-2.489164 8.633411,-4.980534 12.947897,-7.474643 2.754847,1.595444 5.510025,3.19031 8.264998,4.785532 0.1484,-1.096498 -1.444172,-1.189215 -2.105466,-1.818868 -1.880319,-1.088575 -3.760671,-2.17709 -5.640969,-3.2657 2.585037,-1.493496 5.166607,-2.99291 7.746435,-4.495367 0.148427,-1.269174 -1.442072,0.48588 -2.102591,0.623564 -2.052076,1.193354 -4.105654,2.384986 -6.161772,3.571818 -3.591468,-2.079558 -7.183099,-4.15883 -10.774812,-6.237951 4.315698,-2.490229 8.631966,-4.981712 12.944092,-7.476545 2.031699,1.17629 4.063388,2.35259 6.095083,3.528884 0.148403,-1.096502 -1.444172,-1.189212 -2.105466,-1.818868 -1.157553,-0.670098 -2.315051,-1.340285 -3.472638,-2.010319 1.859963,-1.079215 3.719836,-2.158499 5.578104,-3.240617 0.148434,-1.269164 -1.44214,0.485764 -2.102687,0.623393 -1.32988,0.774046 -2.662195,1.544886 -3.993031,2.317871 -3.590675,-2.079142 -7.181374,-4.158249 -10.772278,-6.236998 4.314458,-2.490499 8.62962,-4.979732 12.93871,-7.479396 1.30976,0.758259 2.619527,1.516509 3.929286,2.274765 0.148396,-1.096484 -1.4441,-1.189334 -2.105364,-1.819045 -1.23311,-0.480597 -1.505384,-0.961789 -0.122355,-1.445258 0.66988,-0.493065 1.716856,-0.797104 2.162147,-1.402753 0.0051,-0.966461 -1.125675,0.429104 -1.606426,0.47974 -0.799169,0.334048 -1.598523,1.178205 -2.397919,1.23091 C 62.248537,12.409093 58.705939,10.358049 55.163096,8.3074313 56.792528,7.3662546 58.421867,6.4249276 60.051265,5.4836895 58.511811,5.2661936 57.392966,6.6174438 56.064694,7.1875959 55.256602,7.7319145 54.448533,8.3291361 53.641106,7.4258064 52.401891,6.8262114 51.273317,5.8146578 49.961952,5.4836895 c -1.583147,-0.158231 0.82431,0.7554014 1.253589,1.1377019 0.970571,0.5619018 1.941099,1.1238684 2.911698,1.6857223 C 49.809287,10.798344 45.490181,13.28732 41.170791,15.776054 37.572778,13.692486 33.974554,11.609281 30.376337,9.5260654 32.718422,8.1785203 35.060615,6.8311629 37.402742,5.4836895 35.862646,5.2661662 34.740511,6.613148 33.410575,7.1822824 32.226247,7.8634447 31.042368,8.5453856 29.857774,9.2260801 27.641786,8.0055712 25.483873,6.5686489 23.231457,5.4836895 c -1.796916,-0.2156314 0.403149,0.6423661 0.950695,1.0564829 1.556513,0.901216 3.113027,1.802432 4.669543,2.7036479 z M 54.807356,8.7005501 c 3.535341,2.0470799 7.070545,4.0943979 10.605972,6.1413309 -4.308647,2.499955 -8.623836,4.988685 -12.938076,7.479078 -3.595261,-2.081996 -7.190789,-4.163528 -10.786218,-6.245234 4.319499,-2.488478 8.638462,-4.977625 12.956133,-7.4692577 l 0.140293,0.08138 0.02189,0.012703 z M 30.019013,9.9191843 c 3.543885,2.0518497 7.087708,4.1038097 10.63163,6.1555877 -4.320557,2.490591 -8.64507,4.975101 -12.967851,7.462291 -3.599712,-2.084216 -7.199389,-4.16849 -10.799206,-6.252522 4.324495,-2.486415 8.64894,-4.972915 12.973556,-7.459122 l 0.140343,0.081294 0.02153,0.012464 z m 11.312383,6.5496587 c 3.541877,2.050584 7.083706,4.101252 10.62561,6.151787 -4.319202,2.489994 -8.638847,4.979216 -12.959299,7.467041 -3.598918,-2.083307 -7.197464,-4.167264 -10.796354,-6.250623 4.322463,-2.487897 8.647194,-4.972615 12.967854,-7.462287 l 0.140293,0.08138 z m 11.305731,6.545855 c 3.536799,2.047643 7.073615,4.095256 10.610403,6.142919 -4.313164,2.494621 -8.627943,4.986452 -12.944092,7.47591 -3.595804,-2.082072 -7.191704,-4.163983 -10.787802,-6.245553 4.320478,-2.487883 8.640558,-4.97646 12.959298,-7.467358 l 0.140297,0.08138 0.02189,0.0127 z m -24.79278,1.215469 c 3.544631,2.05226 7.089139,4.104731 10.633847,6.156855 -4.323255,2.487104 -8.646199,4.974753 -12.969751,7.461338 -3.600139,-2.084523 -7.200224,-4.169139 -10.800474,-6.253471 4.32477,-2.486275 8.649595,-4.972458 12.974505,-7.458487 l 0.140344,0.08129 0.02153,0.01246 z m 11.314282,6.550609 c 3.541774,2.050583 7.083487,4.101265 10.625296,6.151787 -4.320619,2.488317 -8.639097,4.980394 -12.961201,7.466088 -3.598539,-2.083386 -7.197087,-4.166759 -10.79572,-6.249988 4.323267,-2.487187 8.646194,-4.974971 12.969754,-7.461653 l 0.140344,0.0813 0.02151,0.01246 z m 11.306363,6.545855 c 3.537652,2.048374 7.075278,4.096788 10.612944,6.145135 -4.31439,2.493886 -8.630498,4.984789 -12.947582,7.474007 -3.596211,-2.082416 -7.192661,-4.164419 -10.789066,-6.246501 4.321575,-2.485664 8.641879,-4.976259 12.961515,-7.466724 l 0.140293,0.08138 0.02189,0.0127 z m -24.795629,1.215154 c 3.544628,2.052052 7.089167,4.104261 10.633851,6.15622 -4.323444,2.48704 -8.646635,4.974524 -12.970389,7.461021 -3.600342,-2.084538 -7.200662,-4.169112 -10.801105,-6.253472 4.325131,-2.486063 8.650466,-4.971774 12.975772,-7.457537 l 0.140344,0.0813 0.02153,0.01246 z m 11.314918,6.550606 c 3.542194,2.050794 7.084338,4.101681 10.626563,6.152422 -4.320923,2.488778 -8.639728,4.980667 -12.962785,7.465456 -3.598864,-2.08369 -7.197705,-4.167425 -10.796671,-6.250941 4.323629,-2.486975 8.647067,-4.974288 12.971022,-7.460703 l 0.140344,0.08129 0.02151,0.01247 z m 11.30763,6.546172 c 3.538523,2.048852 7.076794,4.098141 10.615474,6.146719 -4.315356,2.493252 -8.632229,4.983871 -12.950112,7.472741 -3.596645,-2.082819 -7.193484,-4.165304 -10.790335,-6.247768 4.322833,-2.485166 8.642165,-4.975846 12.962784,-7.465775 l 0.140293,0.08138 0.02189,0.0127 z m -24.798164,1.21357 c 3.545053,2.052472 7.089989,4.105145 10.635117,6.157486 -4.323807,2.486832 -8.647507,4.973841 -12.971655,7.460075 -3.600668,-2.084841 -7.201278,-4.169777 -10.802056,-6.254424 4.325406,-2.485926 8.65112,-4.971317 12.976721,-7.456906 l 0.140344,0.0813 0.02153,0.01246 z m 42.929464,13.644484 c -1.774095,1.029376 -3.548587,2.059492 -5.325954,3.083814 1.552061,0.207723 2.680772,-1.149961 4.023434,-1.728579 1.133007,-0.761555 2.528643,-1.248531 3.492075,-2.189305 0.769293,-1.035993 -0.305641,-0.259239 -0.898345,0.0828 -0.430402,0.250422 -0.860808,0.500847 -1.29121,0.75127 z"
     style="color:#000000;font-style:normal;font-variant:normal;font-weight:normal;font-stretch:normal;font-size:medium;line-height:normal;font-family:sans-serif;text-indent:0;text-align:start;text-decoration:none;text-decoration-line:none;text-decoration-style:solid;text-decoration-color:#000000;letter-spacing:normal;word-spacing:normal;text-transform:none;writing-mode:lr-tb;direction:ltr;baseline-shift:baseline;text-anchor:start;white-space:normal;clip-rule:nonzero;display:inline;overflow:visible;visibility:visible;opacity:1;isolation:auto;mix-blend-mode:normal;color-interpolation:sRGB;color-interpolation-filters:linearRGB;solid-color:#000000;solid-opacity:1;fill:#5d5d5d;fill-opacity:1;fill-rule:evenodd;stroke:none;stroke-width:0.51900554;stroke-linecap:butt;stroke-linejoin:miter;stroke-miterlimit:4;stroke-dasharray:none;stroke-dashoffset:0;stroke-opacity:1;color-rendering:auto;image-rendering:auto;shape-rendering:auto;text-rendering:auto;enable-background:accumulate" />
  <g
     id="g4657"
     transform="matrix(0.13445718,0,0,0.16729988,-3.3646384,75.963531)"
     style="fill:#747474;fill-opacity:1;stroke:none;stroke-width:17.30223465;stroke-linecap:butt;stroke-linejoin:round;stroke-miterlimit:4;stroke-dasharray:none;stroke-opacity:1">
    <path
       inkscape:connector-curvature="0"
       id="path4655"
       d="m 207.69922,-385.10573 c -31.24302,1.04844 -57.21052,23.82932 -72.34766,49.69922 -11.82601,20.44607 -24.63942,41.31988 -29.36328,64.70703 4.37136,12.97172 18.52724,17.9732 26.95071,27.73201 67.24099,57.96418 130.51301,122.31299 208.20845,166.658008 26.11792,13.894044 58.15146,23.720343 87.06461,12.547207 30.22192,-12.083583 48.84202,-41.126235 62.62884,-69.126915 6.46488,-12.92724 13.38069,-26.17265 15.78802,-40.51539 -4.12991,-12.30821 -17.68786,-16.87963 -25.55044,-26.24585 -67.54466,-58.33346 -131.25137,-122.80588 -209.14488,-167.67797 -19.74992,-10.45852 -41.62548,-18.17636 -64.23437,-17.77735 z"
       style="opacity:1;fill:#333333;fill-opacity:1;stroke:none;stroke-width:17.30223465;stroke-linecap:round;stroke-linejoin:round;stroke-miterlimit:4;stroke-dasharray:none;stroke-opacity:1;filter:url(#filter4330)" />
  </g>
  <path
     inkscape:connector-curvature="0"
     id="path4659"
     d="m 13.596969,3.4722816 c -5.4312343,0 -9.8444437,4.4128953 -9.8444437,9.8441264 v 48.431223 c 0,5.431234 4.4132094,9.844129 9.8444437,9.844129 h 48.430906 c 5.431234,0 9.844126,-4.412895 9.844126,-9.844129 V 13.316408 c 0,-5.4312311 -4.412892,-9.8441264 -9.844126,-9.8441264 z m 0,2.5950281 h 48.430906 c 4.038476,0 7.249098,3.2106251 7.249098,7.2490983 v 48.431223 c 0,4.038476 -3.210622,7.249101 -7.249098,7.249101 H 13.596969 c -4.0384748,0 -7.249416,-3.210625 -7.249416,-7.249101 V 13.316408 c 0,-4.0384732 3.2109412,-7.2490983 7.249416,-7.2490983 z"
     style="color:#000000;font-style:normal;font-variant:normal;font-weight:normal;font-stretch:normal;font-size:medium;line-height:normal;font-family:sans-serif;text-indent:0;text-align:start;text-decoration:none;text-decoration-line:none;text-decoration-style:solid;text-decoration-color:#000000;letter-spacing:normal;word-spacing:normal;text-transform:none;writing-mode:lr-tb;direction:ltr;baseline-shift:baseline;text-anchor:start;white-space:normal;clip-rule:nonzero;display:inline;overflow:visible;visibility:visible;opacity:1;isolation:auto;mix-blend-mode:normal;color-interpolation:sRGB;color-interpolation-filters:linearRGB;solid-color:#000000;solid-opacity:1;fill:#000000;fill-opacity:1;fill-rule:nonzero;stroke:none;stroke-width:2.59502769;stroke-linecap:round;stroke-linejoin:bevel;stroke-miterlimit:4;stroke-dasharray:none;stroke-dashoffset:0;stroke-opacity:1;color-rendering:auto;image-rendering:auto;shape-rendering:auto;text-rendering:auto;enable-background:accumulate" />
  <path
     inkscape:connector-curvature="0"
     id="path4661"
     d="M 61.90662,4.4243927 C 45.501013,4.496238 29.090254,4.3920198 12.684722,4.476343 7.9897153,4.868813 4.1567505,9.5337865 4.7491467,14.224484 4.7260622,30.4283 4.6747078,46.63462 4.7808502,62.836907 c 0.482413,4.638556 5.084363,8.323553 9.7240668,7.758499 16.256936,0.01072 32.519278,0.09826 48.772862,-0.05067 4.53175,-0.573615 8.121496,-5.059957 7.609438,-9.615771 C 70.862288,44.617093 70.999241,28.30105 70.812141,11.991848 70.245803,7.7433509 66.189693,4.2975238 61.90662,4.4243927 Z M 13.526712,5.0696649 c 15.966701,0.079051 31.937062,-0.035931 47.9043,0.059026 2.194052,-0.1645622 4.440716,0.51073 6.055614,2.0326448 2.038365,1.7934236 3.070135,4.5836173 2.760144,7.2728553 -0.03753,16.175486 0.09614,32.354754 -0.0723,48.527843 -0.51745,4.272169 -4.857032,7.543251 -9.102872,7.004806 -16.22923,-0.0389 -32.462245,0.09614 -48.68908,-0.0728 C 8.1102411,69.377045 4.8389842,65.037297 5.3774265,60.791484 5.4186486,44.558866 5.277104,28.322506 5.4533634,12.092269 5.9380487,8.193795 9.6177312,5.0481581 13.526712,5.0696649 Z"
     style="color:#000000;font-style:normal;font-variant:normal;font-weight:normal;font-stretch:normal;font-size:medium;line-height:normal;font-family:sans-serif;text-indent:0;text-align:start;text-decoration:none;text-decoration-line:none;text-decoration-style:solid;text-decoration-color:#000000;letter-spacing:normal;word-spacing:normal;text-transform:none;writing-mode:lr-tb;direction:ltr;baseline-shift:baseline;text-anchor:start;white-space:normal;clip-rule:nonzero;display:inline;overflow:visible;visibility:visible;opacity:1;isolation:auto;mix-blend-mode:normal;color-interpolation:sRGB;color-interpolation-filters:linearRGB;solid-color:#000000;solid-opacity:1;fill:url(#radialGradient4783);fill-opacity:1;fill-rule:nonzero;stroke:none;stroke-width:2.59502769;stroke-linecap:round;stroke-linejoin:bevel;stroke-miterlimit:4;stroke-dasharray:none;stroke-dashoffset:0;stroke-opacity:1;color-rendering:auto;image-rendering:auto;shape-rendering:auto;text-rendering:auto;enable-background:accumulate" />
  <g
     transform="matrix(0.14046,-0.08109462,0.08109462,0.14046,11.451313,42.018831)"
     id="g4667"
     style="fill:#616161;fill-opacity:1;stroke-linecap:butt;stroke-linejoin:round">
    <path
       inkscape:connector-curvature="0"
       id="path4663"
       d="m 277.24805,-80.273438 c -1.48859,4.773783 3.64972,16.174464 -4,14.78711 -10.38086,0 -20.76172,0 -31.14258,0 1.16657,5.017669 -2.43997,14.808462 2,16.552734 31.14127,0 62.28255,0 93.42383,0 -20.09386,-11.601379 -40.18775,-23.202694 -60.28125,-34.804687 0,1.154948 0,2.309896 0,3.464843 z"
       style="fill:#616161;fill-opacity:1;fill-rule:evenodd;stroke:none;stroke-width:0.80000001px;stroke-linecap:butt;stroke-linejoin:miter;stroke-opacity:1;filter:url(#filter4425)" />
    <path
       inkscape:connector-curvature="0"
       id="path4665"
       d="m 243.10547,-32.142578 c 17.93877,10.35812 35.87777,20.715852 53.81641,31.0742186 -10e-6,-6.0839843 0,-12.1679686 0,-18.2519526 11.71419,0 23.42838,-10e-7 35.14257,0 -1.16656,-5.018329 2.43995,-14.80974 -2,-16.554688 -31.14062,0 -62.28125,0 -93.42187,0 2.1543,1.244141 4.30859,2.488281 6.46289,3.732422 z"
       style="fill:#616161;fill-opacity:1;fill-rule:evenodd;stroke:none;stroke-width:0.80000001px;stroke-linecap:butt;stroke-linejoin:miter;stroke-opacity:1;filter:url(#filter4433)" />
  </g>
  <g
     style="fill:#616161;fill-opacity:1;stroke-linecap:butt;stroke-linejoin:round"
     id="g4673"
     transform="matrix(-0.14046,-0.08109462,-0.08109462,0.14046,97.637251,56.907929)">
    <path
       style="fill:#616161;fill-opacity:1;fill-rule:evenodd;stroke:none;stroke-width:0.80000001px;stroke-linecap:butt;stroke-linejoin:miter;stroke-opacity:1;filter:url(#filter4425)"
       d="m 277.24805,-80.273438 c -1.48859,4.773783 3.64972,16.174464 -4,14.78711 -10.38086,0 -20.76172,0 -31.14258,0 1.16657,5.017669 -2.43997,14.808462 2,16.552734 31.14127,0 62.28255,0 93.42383,0 -20.09386,-11.601379 -40.18775,-23.202694 -60.28125,-34.804687 0,1.154948 0,2.309896 0,3.464843 z"
       id="path4669"
       inkscape:connector-curvature="0" />
    <path
       style="fill:#616161;fill-opacity:1;fill-rule:evenodd;stroke:none;stroke-width:0.80000001px;stroke-linecap:butt;stroke-linejoin:miter;stroke-opacity:1;filter:url(#filter4433)"
       d="m 243.10547,-32.142578 c 17.93877,10.35812 35.87777,20.715852 53.81641,31.0742186 -10e-6,-6.0839843 0,-12.1679686 0,-18.2519526 11.71419,0 23.42838,-10e-7 35.14257,0 -1.16656,-5.018329 2.43995,-14.80974 -2,-16.554688 -31.14062,0 -62.28125,0 -93.42187,0 2.1543,1.244141 4.30859,2.488281 6.46289,3.732422 z"
       id="path4671"
       inkscape:connector-curvature="0" />
  </g>
  <g
     style="fill:#616161;fill-opacity:1;stroke-linecap:butt;stroke-linejoin:round"
     id="g4679"
     transform="matrix(0.14046,-0.08109462,0.08109462,0.14046,-8.9339738,92.771555)">
    <path
       style="fill:#616161;fill-opacity:1;fill-rule:evenodd;stroke:none;stroke-width:0.80000001px;stroke-linecap:butt;stroke-linejoin:miter;stroke-opacity:1;filter:url(#filter4425)"
       d="m 277.24805,-80.273438 c -1.48859,4.773783 3.64972,16.174464 -4,14.78711 -10.38086,0 -20.76172,0 -31.14258,0 1.16657,5.017669 -2.43997,14.808462 2,16.552734 31.14127,0 62.28255,0 93.42383,0 -20.09386,-11.601379 -40.18775,-23.202694 -60.28125,-34.804687 0,1.154948 0,2.309896 0,3.464843 z"
       id="path4675"
       inkscape:connector-curvature="0" />
    <path
       style="fill:#616161;fill-opacity:1;fill-rule:evenodd;stroke:none;stroke-width:0.80000001px;stroke-linecap:butt;stroke-linejoin:miter;stroke-opacity:1;filter:url(#filter4433)"
       d="m 243.10547,-32.142578 c 17.93877,10.35812 35.87777,20.715852 53.81641,31.0742186 -10e-6,-6.0839843 0,-12.1679686 0,-18.2519526 11.71419,0 23.42838,-10e-7 35.14257,0 -1.16656,-5.018329 2.43995,-14.80974 -2,-16.554688 -31.14062,0 -62.28125,0 -93.42187,0 2.1543,1.244141 4.30859,2.488281 6.46289,3.732422 z"
       id="path4677"
       inkscape:connector-curvature="0" />
  </g>
  <g
     id="g4685"
     transform="matrix(-0.14046,-0.08109462,-0.08109462,0.14046,154.43856,188.76615)"
     style="stroke-linecap:butt;stroke-linejoin:round">
    <path
       sodipodi:nodetypes="cccccc"
       inkscape:connector-curvature="0"
       style="fill:#000000;fill-opacity:1;fill-rule:evenodd;stroke:none;stroke-width:0.80000001px;stroke-linecap:butt;stroke-linejoin:miter;stroke-opacity:1"
       d="m 1168.8438,-361.31875 v 16.7875 h -35.1422 v 12.55312 h 85.9594 z"
       id="path4681" />
    <path
       sodipodi:nodetypes="cccccc"
       id="path4683"
       d="m 1184.5188,-285.57814 v -16.7875 h 35.1422 v -12.5531 h -85.9594 z"
       style="fill:#000000;fill-opacity:1;fill-rule:evenodd;stroke:none;stroke-width:0.80000001px;stroke-linecap:butt;stroke-linejoin:miter;stroke-opacity:1"
       inkscape:connector-curvature="0" />
  </g>
  <g
     transform="matrix(-0.14046,-0.08109462,-0.08109462,0.14046,52.796116,77.668151)"
     id="g4691"
     style="fill:#616161;fill-opacity:1;stroke-linecap:butt;stroke-linejoin:round">
    <path
       inkscape:connector-curvature="0"
       id="path4687"
       d="m 277.24805,-80.273438 c -1.48859,4.773783 3.64972,16.174464 -4,14.78711 -10.38086,0 -20.76172,0 -31.14258,0 1.16657,5.017669 -2.43997,14.808462 2,16.552734 31.14127,0 62.28255,0 93.42383,0 -20.09386,-11.601379 -40.18775,-23.202694 -60.28125,-34.804687 0,1.154948 0,2.309896 0,3.464843 z"
       style="fill:#616161;fill-opacity:1;fill-rule:evenodd;stroke:none;stroke-width:0.80000001px;stroke-linecap:butt;stroke-linejoin:miter;stroke-opacity:1;filter:url(#filter4425)" />
    <path
       inkscape:connector-curvature="0"
       id="path4689"
       d="m 243.10547,-32.142578 c 17.93877,10.35812 35.87777,20.715852 53.81641,31.0742186 -10e-6,-6.0839843 0,-12.1679686 0,-18.2519526 11.71419,0 23.42838,-10e-7 35.14257,0 -1.16656,-5.018329 2.43995,-14.80974 -2,-16.554688 -31.14062,0 -62.28125,0 -93.42187,0 2.1543,1.244141 4.30859,2.488281 6.46289,3.732422 z"
       style="fill:#616161;fill-opacity:1;fill-rule:evenodd;stroke:none;stroke-width:0.80000001px;stroke-linecap:butt;stroke-linejoin:miter;stroke-opacity:1;filter:url(#filter4433)" />
  </g>
  <path
     style="color:#000000;font-style:normal;font-variant:normal;font-weight:normal;font-stretch:normal;font-size:medium;line-height:normal;font-family:sans-serif;text-indent:0;text-align:start;text-decoration:none;text-decoration-line:none;text-decoration-style:solid;text-decoration-color:#000000;letter-spacing:normal;word-spacing:normal;text-transform:none;writing-mode:lr-tb;direction:ltr;baseline-shift:baseline;text-anchor:start;white-space:normal;clip-rule:nonzero;display:inline;overflow:visible;visibility:visible;opacity:0.5;isolation:auto;mix-blend-mode:normal;color-interpolation:sRGB;color-interpolation-filters:linearRGB;solid-color:#000000;solid-opacity:1;fill:url(#radialGradient4785);fill-opacity:1;fill-rule:nonzero;stroke:none;stroke-width:2.59502769;stroke-linecap:round;stroke-linejoin:bevel;stroke-miterlimit:4;stroke-dasharray:none;stroke-dashoffset:0;stroke-opacity:1;color-rendering:auto;image-rendering:auto;shape-rendering:auto;text-rendering:auto;enable-background:accumulate"
     d="M 61.90662,4.4243927 C 45.501013,4.496238 29.090254,4.3920198 12.684722,4.476343 7.9897153,4.868813 4.1567505,9.5337865 4.7491467,14.224484 4.7260622,30.4283 4.6747078,46.63462 4.7808502,62.836907 c 0.482413,4.638556 5.084363,8.323553 9.7240668,7.758499 16.256936,0.01072 32.519278,0.09826 48.772862,-0.05067 4.53175,-0.573615 8.121496,-5.059957 7.609438,-9.615771 C 70.862288,44.617093 70.999241,28.30105 70.812141,11.991848 70.245803,7.7433509 66.189693,4.2975238 61.90662,4.4243927 Z M 13.526712,5.0696649 c 15.966701,0.079051 31.937062,-0.035931 47.9043,0.059026 2.194052,-0.1645622 4.440716,0.51073 6.055614,2.0326448 2.038365,1.7934236 3.070135,4.5836173 2.760144,7.2728553 -0.03753,16.175486 0.09614,32.354754 -0.0723,48.527843 -0.51745,4.272169 -4.857032,7.543251 -9.102872,7.004806 -16.22923,-0.0389 -32.462245,0.09614 -48.68908,-0.0728 C 8.1102411,69.377045 4.8389842,65.037297 5.3774265,60.791484 5.4186486,44.558866 5.277104,28.322506 5.4533634,12.092269 5.9380487,8.193795 9.6177312,5.0481581 13.526712,5.0696649 Z"
     id="path4693"
     inkscape:connector-curvature="0" />
  <rect
     ry="8.3774271"
     y="5.570055"
     x="5.850482"
     height="64.226936"
     width="64.226936"
     id="rect4695"
     style="opacity:1;fill:url(#linearGradient4787);fill-opacity:1;stroke:none;stroke-width:1.29751384;stroke-linecap:round;stroke-linejoin:bevel;stroke-miterlimit:4;stroke-dasharray:none;stroke-dashoffset:0;stroke-opacity:1" />
  <g
     transform="matrix(0.16218923,0,0,0.16218923,1.2554502,0.97502108)"
     style="stroke-linecap:butt;stroke-linejoin:round"
     id="g4725">
    <g
       style="fill:#ffbc3b;fill-opacity:1;stroke:none;stroke-width:17.30223465;stroke-linecap:butt;stroke-linejoin:round;stroke-miterlimit:4;stroke-dasharray:none;stroke-opacity:1"
       transform="matrix(0.8290142,0,0,1.0315104,-28.48579,462.35198)"
       id="g4699">
      <path
         sodipodi:nodetypes="cccccccccccccccccccccccccccccccccccccccccccccccccccccccccccccccccccccccccccccccccccccccccccccccccccccccccccccc"
         id="path4697"
         style="opacity:1;fill:#ffbc3b;fill-opacity:1;stroke:none;stroke-width:17.30223465;stroke-linecap:round;stroke-linejoin:round;stroke-miterlimit:4;stroke-dasharray:none;stroke-opacity:1"
         d="m 495.14386,-179.30676 -0.513,1.24 -4.597,10.826 -4.264,9.525 -4.042,8.528 -3.853,7.651 -3.719,6.925 -3.613,6.29 -3.523,5.715 -3.452,5.201 -3.402,4.748 -3.357,4.324 -3.32,3.932 -3.29,3.568 -3.27,3.236 -3.268,2.933 -3.288,2.661 -3.298,2.389 -3.292,2.117 -3.317,1.875 -3.328,1.633 -3.394,1.421 -3.463,1.209 -3.539,0.998 -3.627,0.787 -3.743,0.574 -3.991,0.363 -6.151,0.091 -2.096,-0.091 -3.989,-0.333 -4.26,-0.574 -4.404,-0.817 -4.64,-1.088 -4.917,-1.391 -5.133,-1.694 -5.396,-2.026 -5.693,-2.389 -6.018,-2.782 -6.308,-3.175 -6.685,-3.629 -7.084,-4.113 -7.549,-4.656 -8.031,-5.232 -8.615,-5.897 -9.254,-6.622 -9.984,-7.439 -10.839,-8.377 -11.892,-9.495 -13.24,-10.887 -15.016,-12.67 -17.767,-15.332 -62.038,-54.885 -23.202,-20.473 -17.821,-15.483 -0.02,-0.03 4.847,-11.461 4.444,-9.949 4.169,-8.8 3.966,-7.862 3.831,-7.107 3.705,-6.411 3.609,-5.806 3.529,-5.261 3.468,-4.778 3.409,-4.3246 3.378,-3.9312 3.356,-3.5683 3.316,-3.2055 3.318,-2.903 3.307,-2.6006 3.317,-2.3285 3.31,-2.0563 3.335,-1.8144 3.345,-1.5725 3.411,-1.3608 3.481,-1.1491 3.559,-0.9375 3.649,-0.7257 3.774,-0.5141 3.471,-0.2722 1.487,-0.0605 6.219,0.0908 4.262,0.3628 4.359,0.6048 4.459,0.8468 4.677,1.1188 4.845,1.3911 5.082,1.6934 5.282,1.9959 5.603,2.3587 5.881,2.7216 6.192,3.1147 6.532,3.5381 6.897,3.9917 7.336,4.5057 7.792,5.0499 8.31,5.655 8.889,6.32 9.563,7.076 10.327,7.923 11.257,8.921 12.342,10.07 13.761,11.521 15.68,13.427 18.751,16.36 25.835,22.861 48.213,42.699 17.648,15.332 0.01,0.015 z"
         clip-path="url(#p5873ec822d-3)"
         inkscape:connector-curvature="0" />
    </g>
    <g
       id="g4703"
       transform="matrix(0.8290142,0,0,1.0315104,-28.48579,462.35198)"
       style="fill:url(#linearGradient4791);fill-opacity:1;stroke:none;stroke-width:17.30223465;stroke-linecap:butt;stroke-linejoin:round;stroke-miterlimit:4;stroke-dasharray:none;stroke-opacity:1">
      <path
         inkscape:connector-curvature="0"
         clip-path="url(#p5873ec822d-3)"
         d="m 495.14386,-179.30676 -0.513,1.24 -4.597,10.826 -4.264,9.525 -4.042,8.528 -3.853,7.651 -3.719,6.925 -3.613,6.29 -3.523,5.715 -3.452,5.201 -3.402,4.748 -3.357,4.324 -3.32,3.932 -3.29,3.568 -3.27,3.236 -3.268,2.933 -3.288,2.661 -3.298,2.389 -3.292,2.117 -3.317,1.875 -3.328,1.633 -3.394,1.421 -3.463,1.209 -3.539,0.998 -3.627,0.787 -3.743,0.574 -3.991,0.363 -6.151,0.091 -2.096,-0.091 -3.989,-0.333 -4.26,-0.574 -4.404,-0.817 -4.64,-1.088 -4.917,-1.391 -5.133,-1.694 -5.396,-2.026 -5.693,-2.389 -6.018,-2.782 -6.308,-3.175 -6.685,-3.629 -7.084,-4.113 -7.549,-4.656 -8.031,-5.232 -8.615,-5.897 -9.254,-6.622 -9.984,-7.439 -10.839,-8.377 -11.892,-9.495 -13.24,-10.887 -15.016,-12.67 -17.767,-15.332 -62.038,-54.885 -23.202,-20.473 -17.821,-15.483 -0.02,-0.03 4.847,-11.461 4.444,-9.949 4.169,-8.8 3.966,-7.862 3.831,-7.107 3.705,-6.411 3.609,-5.806 3.529,-5.261 3.468,-4.778 3.409,-4.3246 3.378,-3.9312 3.356,-3.5683 3.316,-3.2055 3.318,-2.903 3.307,-2.6006 3.317,-2.3285 3.31,-2.0563 3.335,-1.8144 3.345,-1.5725 3.411,-1.3608 3.481,-1.1491 3.559,-0.9375 3.649,-0.7257 3.774,-0.5141 3.471,-0.2722 1.487,-0.0605 6.219,0.0908 4.262,0.3628 4.359,0.6048 4.459,0.8468 4.677,1.1188 4.845,1.3911 5.082,1.6934 5.282,1.9959 5.603,2.3587 5.881,2.7216 6.192,3.1147 6.532,3.5381 6.897,3.9917 7.336,4.5057 7.792,5.0499 8.31,5.655 8.889,6.32 9.563,7.076 10.327,7.923 11.257,8.921 12.342,10.07 13.761,11.521 15.68,13.427 18.751,16.36 25.835,22.861 48.213,42.699 17.648,15.332 0.01,0.015 z"
         style="opacity:1;fill:url(#linearGradient4789);fill-opacity:1;stroke:none;stroke-width:17.30223465;stroke-linecap:round;stroke-linejoin:round;stroke-miterlimit:4;stroke-dasharray:none;stroke-opacity:1"
         id="path4701"
         sodipodi:nodetypes="cccccccccccccccccccccccccccccccccccccccccccccccccccccccccccccccccccccccccccccccccccccccccccccccccccccccccccccc" />
    </g>
    <g
       id="g4707"
       transform="matrix(0.8290142,0,0,1.0315104,-172.48579,462.35198)"
       style="fill:#105a00;fill-opacity:0;stroke:none;stroke-width:17.30223465;stroke-linecap:butt;stroke-linejoin:round;stroke-miterlimit:4;stroke-dasharray:none;stroke-opacity:1">
      <path
         inkscape:connector-curvature="0"
         clip-path="url(#p5873ec822d-3)"
         d="m 668.84413,-179.30676 -0.513,1.24 -4.597,10.826 -4.264,9.525 -4.042,8.528 -3.853,7.651 -3.719,6.925 -3.613,6.29 -3.523,5.715 -3.452,5.201 -3.402,4.748 -3.357,4.324 -3.32,3.932 -3.29,3.568 -3.27,3.236 -3.268,2.933 -3.288,2.661 -3.298,2.389 -3.292,2.117 -3.317,1.875 -3.328,1.633 -3.394,1.421 -3.463,1.209 -3.539,0.998 -3.627,0.787 -3.743,0.574 -3.991,0.363 -6.151,0.091 -2.096,-0.091 -3.989,-0.333 -4.26,-0.574 -4.404,-0.817 -4.64,-1.088 -4.917,-1.391 -5.133,-1.694 -5.396,-2.026 -5.693,-2.389 -6.018,-2.782 -6.308,-3.175 -6.685,-3.629 -7.084,-4.113 -7.549,-4.656 -8.031,-5.232 -8.615,-5.897 -9.254,-6.622 -9.984,-7.439 -10.839,-8.377 -11.892,-9.495 -13.24,-10.887 -15.016,-12.67 -17.767,-15.332 -62.038,-54.885 -23.202,-20.473 -17.821,-15.483 -0.02,-0.03 4.847,-11.461 4.444,-9.949 4.169,-8.8 3.966,-7.862 3.831,-7.107 3.705,-6.411 3.609,-5.806 3.529,-5.261 3.468,-4.778 3.409,-4.3246 3.378,-3.9312 3.356,-3.5683 3.316,-3.2055 3.318,-2.903 3.307,-2.6006 3.317,-2.3285 3.31,-2.0563 3.335,-1.8144 3.345,-1.5725 3.411,-1.3608 3.481,-1.1491 3.559,-0.9375 3.649,-0.7257 3.774,-0.5141 3.471,-0.2722 1.487,-0.0605 6.219,0.0908 4.262,0.3628 4.359,0.6048 4.459,0.8468 4.677,1.1188 4.845,1.3911 5.082,1.6934 5.282,1.9959 5.603,2.3587 5.881,2.7216 6.192,3.1147 6.532,3.5381 6.897,3.9917 7.336,4.5057 7.792,5.0499 8.31,5.655 8.889,6.32 9.563,7.076 10.327,7.923 11.257,8.921 12.342,10.07 13.761,11.521 15.68,13.427 18.751,16.36 25.835,22.861 48.213,42.699 17.648,15.332 0.01,0.015 z"
         style="opacity:1;fill:#105a00;fill-opacity:0;stroke:none;stroke-width:17.30223465;stroke-linecap:round;stroke-linejoin:round;stroke-miterlimit:4;stroke-dasharray:none;stroke-opacity:1"
         id="path4705"
         sodipodi:nodetypes="cccccccccccccccccccccccccccccccccccccccccccccccccccccccccccccccccccccccccccccccccccccccccccccccccccccccccccccc" />
    </g>
    <g
       id="g4711"
       transform="matrix(0.8290142,0,0,1.0315104,-28.48579,462.35198)"
       style="fill:url(#linearGradient4795);fill-opacity:1;stroke:none;stroke-width:17.30223465;stroke-linecap:butt;stroke-linejoin:round;stroke-miterlimit:4;stroke-dasharray:none;stroke-opacity:1">
      <path
         style="opacity:1;fill:url(#linearGradient4793);fill-opacity:1;stroke:none;stroke-width:17.30223465;stroke-linecap:round;stroke-linejoin:round;stroke-miterlimit:4;stroke-dasharray:none;stroke-opacity:1"
         d="m 207.50391,-364.76562 c -23.68658,1.93761 -40.48655,21.95735 -51.46541,41.32561 -7.44828,12.43672 -13.63907,25.53404 -19.3842,38.80329 31.17537,-4.50239 78.52078,-20.93083 134.23799,19.58609 55.71721,40.51691 75.97387,63.33274 112.69564,75.09587 36.72177,11.76313 55.26737,19.4332 91.46691,14.47626 -71.15092,-60.6148 -136.96402,-129.14511 -218.52535,-176.07036 -15.14321,-7.75016 -31.79799,-13.65826 -49.02558,-13.21676 z"
         id="path4709"
         inkscape:connector-curvature="0"
         sodipodi:nodetypes="ccczzccc" />
    </g>
    <g
       id="g4715"
       transform="matrix(0.8290142,0,0,1.0315104,-28.48579,462.35198)"
       style="fill:none;fill-opacity:1;stroke:#000000;stroke-width:17.30223465;stroke-linecap:butt;stroke-linejoin:round;stroke-miterlimit:4;stroke-dasharray:none;stroke-opacity:1">
      <path
         inkscape:connector-curvature="0"
         id="path4713"
         clip-path="url(#p5873ec822d-3)"
         d="m 209.25586,-389.53711 a 8.6519824,8.6519824 0 0 0 -0.47852,0.006 l -1.48632,0.0605 a 8.6519824,8.6519824 0 0 0 -0.32422,0.0195 l -3.47071,0.27344 a 8.6519824,8.6519824 0 0 0 -0.49218,0.0527 l -3.77344,0.51367 a 8.6519824,8.6519824 0 0 0 -0.51953,0.0859 l -3.65039,0.72656 a 8.6519824,8.6519824 0 0 0 -0.51563,0.11914 l -3.55859,0.9375 a 8.6519824,8.6519824 0 0 0 -0.50781,0.15039 l -3.48243,1.14844 a 8.6519824,8.6519824 0 0 0 -0.49218,0.17969 l -3.41211,1.36133 a 8.6519824,8.6519824 0 0 0 -0.47461,0.20703 l -3.34571,1.57226 a 8.6519824,8.6519824 0 0 0 -0.45312,0.23047 l -3.33398,1.81446 a 8.6519824,8.6519824 0 0 0 -0.43165,0.25 l -3.31054,2.05664 a 8.6519824,8.6519824 0 0 0 -0.4043,0.26757 l -3.31836,2.32813 a 8.6519824,8.6519824 0 0 0 -0.37695,0.28125 l -3.30664,2.59961 a 8.6519824,8.6519824 0 0 0 -0.34766,0.28906 l -3.31836,2.9043 a 8.6519824,8.6519824 0 0 0 -0.3164,0.29101 l -3.31641,3.20508 a 8.6519824,8.6519824 0 0 0 -0.28906,0.29297 l -3.35547,3.56836 a 8.6519824,8.6519824 0 0 0 -0.25977,0.28906 l -3.3789,3.92969 a 8.6519824,8.6519824 0 0 0 -0.23243,0.2832 l -3.4082,4.32422 a 8.6519824,8.6519824 0 0 0 -0.20703,0.27539 l -3.46875,4.77735 a 8.6519824,8.6519824 0 0 0 -0.18359,0.26171 l -3.5293,5.26172 a 8.6519824,8.6519824 0 0 0 -0.16211,0.25196 l -3.60938,5.80664 a 8.6519824,8.6519824 0 0 0 -0.14257,0.23828 l -3.70508,6.41015 a 8.6519824,8.6519824 0 0 0 -0.125,0.22461 l -3.83008,7.10743 a 8.6519824,8.6519824 0 0 0 -0.10937,0.20703 l -3.9668,7.86328 a 8.6519824,8.6519824 0 0 0 -0.0937,0.1914 l -4.16797,8.80079 a 8.6519824,8.6519824 0 0 0 -0.082,0.17578 l -4.44336,9.94922 a 8.6519824,8.6519824 0 0 0 -0.0684,0.1582 l -4.84766,11.46094 a 8.6519824,8.6519824 0 0 0 0.76953,8.16797 l 0.0195,0.0293 a 8.6519824,8.6519824 0 0 0 1.52539,1.73242 l 17.79492,15.46094 23.17383,20.44727 62.0332,54.88086 a 8.6519824,8.6519824 0 0 0 0.0801,0.0703 l 17.76758,15.33203 a 8.6519824,8.6519824 0 0 0 0.0723,0.0625 l 15.01563,12.66992 a 8.6519824,8.6519824 0 0 0 0.0859,0.0703 l 13.24024,10.88672 a 8.6519824,8.6519824 0 0 0 0.0957,0.0801 l 11.89258,9.49414 a 8.6519824,8.6519824 0 0 0 0.10742,0.084 l 10.83789,8.37695 a 8.6519824,8.6519824 0 0 0 0.12305,0.0937 l 9.98242,7.4375 a 8.6519824,8.6519824 0 0 0 0.13477,0.0996 l 9.2539,6.62109 a 8.6519824,8.6519824 0 0 0 0.14844,0.10352 l 8.61523,5.89648 a 8.6519824,8.6519824 0 0 0 0.16407,0.10938 l 8.03125,5.23242 a 8.6519824,8.6519824 0 0 0 0.17968,0.115234 l 7.55079,4.65625 a 8.6519824,8.6519824 0 0 0 0.19726,0.117187 l 7.08399,4.113281 a 8.6519824,8.6519824 0 0 0 0.21679,0.121094 l 6.6836,3.63086 a 8.6519824,8.6519824 0 0 0 0.23828,0.123046 l 6.30859,3.175782 a 8.6519824,8.6519824 0 0 0 0.25977,0.125 l 6.01758,2.78125 a 8.6519824,8.6519824 0 0 0 0.28125,0.125 l 5.69336,2.388672 a 8.6519824,8.6519824 0 0 0 0.30664,0.123046 l 5.39648,2.025391 a 8.6519824,8.6519824 0 0 0 0.33008,0.115235 l 5.13281,1.695312 a 8.6519824,8.6519824 0 0 0 0.35547,0.109375 l 4.91797,1.390625 a 8.6519824,8.6519824 0 0 0 0.3789,0.09766 l 4.64063,1.087891 a 8.6519824,8.6519824 0 0 0 0.39648,0.08398 l 4.4043,0.816407 a 8.6519824,8.6519824 0 0 0 0.42383,0.06836 l 4.25976,0.574219 a 8.6519824,8.6519824 0 0 0 0.43555,0.04687 l 3.98828,0.332031 a 8.6519824,8.6519824 0 0 0 0.34375,0.02344 l 2.09766,0.08984 a 8.6519824,8.6519824 0 0 0 0.50195,0.0078 l 6.15235,-0.0918 a 8.6519824,8.6519824 0 0 0 0.65429,-0.0332 l 3.99219,-0.363282 a 8.6519824,8.6519824 0 0 0 0.52734,-0.06445 l 3.74219,-0.574219 a 8.6519824,8.6519824 0 0 0 0.52344,-0.09766 l 3.62695,-0.787109 a 8.6519824,8.6519824 0 0 0 0.51367,-0.126953 l 3.53907,-0.998047 a 8.6519824,8.6519824 0 0 0 0.5039,-0.158203 l 3.46289,-1.208985 a 8.6519824,8.6519824 0 0 0 0.48828,-0.1875 l 3.39454,-1.421875 a 8.6519824,8.6519824 0 0 0 0.4707,-0.21289 l 3.32812,-1.632813 a 8.6519824,8.6519824 0 0 0 0.44532,-0.236328 l 3.3164,-1.875 a 8.6519824,8.6519824 0 0 0 0.42383,-0.253906 l 3.29102,-2.117188 a 8.6519824,8.6519824 0 0 0 0.39648,-0.271484 l 3.29688,-2.388672 a 8.6519824,8.6519824 0 0 0 0.36718,-0.28125 l 3.28907,-2.660156 a 8.6519824,8.6519824 0 0 0 0.33593,-0.287109 l 3.26758,-2.933594 a 8.6519824,8.6519824 0 0 0 0.30664,-0.289063 l 3.26953,-3.236328 a 8.6519824,8.6519824 0 0 0 0.27539,-0.283203 l 3.29102,-3.568359 a 8.6519824,8.6519824 0 0 0 0.25,-0.283203 l 3.31836,-3.931639 a 8.6519824,8.6519824 0 0 0 0.22461,-0.27735 L 467,-107.35156 a 8.6519824,8.6519824 0 0 0 0.19727,-0.26758 l 3.40234,-4.74805 a 8.6519824,8.6519824 0 0 0 0.17578,-0.2539 l 3.45313,-5.20118 a 8.6519824,8.6519824 0 0 0 0.15625,-0.24414 l 3.52148,-5.71484 a 8.6519824,8.6519824 0 0 0 0.13867,-0.23242 l 3.61328,-6.28906 a 8.6519824,8.6519824 0 0 0 0.11914,-0.2168 l 3.71875,-6.92383 a 8.6519824,8.6519824 0 0 0 0.10547,-0.20312 l 3.85352,-7.6504 a 8.6519824,8.6519824 0 0 0 0.0898,-0.18554 l 4.04297,-8.52735 a 8.6519824,8.6519824 0 0 0 0.0781,-0.17187 l 4.26367,-9.52344 a 8.6519824,8.6519824 0 0 0 0.0664,-0.1543 l 4.59766,-10.82617 a 8.6519824,8.6519824 0 0 0 0.0312,-0.0742 L 503.13867,-176 a 8.6519824,8.6519824 0 0 0 -0.79687,-8.10547 l -0.01,-0.0156 -0.01,-0.0137 a 8.6519824,8.6519824 0 0 0 -1.52539,-1.73242 l -17.61524,-15.30469 -48.18359,-42.67187 a 8.6519824,8.6519824 0 0 0 -0.002,-0.002 l -25.83593,-22.86133 a 8.6519824,8.6519824 0 0 0 -0.0449,-0.041 l -18.75,-16.35937 a 8.6519824,8.6519824 0 0 0 -0.0605,-0.0527 l -15.68164,-13.42578 a 8.6519824,8.6519824 0 0 0 -0.0723,-0.0625 l -13.76172,-11.52148 a 8.6519824,8.6519824 0 0 0 -0.084,-0.0703 l -12.3418,-10.07032 a 8.6519824,8.6519824 0 0 0 -0.0957,-0.0762 l -11.25781,-8.92187 a 8.6519824,8.6519824 0 0 0 -0.10743,-0.082 l -10.32617,-7.92383 a 8.6519824,8.6519824 0 0 0 -0.12109,-0.0898 l -9.5625,-7.07617 a 8.6519824,8.6519824 0 0 0 -0.13281,-0.0976 l -8.88868,-6.31836 a 8.6519824,8.6519824 0 0 0 -0.14648,-0.10157 l -8.31055,-5.65625 a 8.6519824,8.6519824 0 0 0 -0.16211,-0.10742 l -7.79101,-5.04883 a 8.6519824,8.6519824 0 0 0 -0.17774,-0.11328 l -7.33593,-4.50586 a 8.6519824,8.6519824 0 0 0 -0.19336,-0.11523 l -6.89844,-3.99219 a 8.6519824,8.6519824 0 0 0 -0.21289,-0.11914 l -6.53125,-3.53711 a 8.6519824,8.6519824 0 0 0 -0.23242,-0.12305 l -6.19336,-3.11328 a 8.6519824,8.6519824 0 0 0 -0.25391,-0.12304 l -5.88086,-2.72266 a 8.6519824,8.6519824 0 0 0 -0.27539,-0.12109 l -5.60351,-2.35938 a 8.6519824,8.6519824 0 0 0 -0.29883,-0.11914 l -5.28321,-1.99609 a 8.6519824,8.6519824 0 0 0 -0.32226,-0.11524 l -5.08203,-1.69336 a 8.6519824,8.6519824 0 0 0 -0.34766,-0.10742 l -4.84375,-1.39062 a 8.6519824,8.6519824 0 0 0 -0.375,-0.0977 l -4.67773,-1.11914 a 8.6519824,8.6519824 0 0 0 -0.39844,-0.0859 l -4.45899,-0.84765 a 8.6519824,8.6519824 0 0 0 -0.42578,-0.0684 l -4.35937,-0.60547 a 8.6519824,8.6519824 0 0 0 -0.45508,-0.0508 l -4.26172,-0.36329 a 8.6519824,8.6519824 0 0 0 -0.60742,-0.0293 l -6.21875,-0.0918 z m -0.0137,17.30469 5.67578,0.082 3.73047,0.31836 3.91992,0.54297 4.04687,0.76953 4.28907,1.02539 4.48437,1.28711 4.7461,1.58203 4.97265,1.87891 5.31446,2.23828 5.61523,2.59765 5.94922,2.99219 6.30859,3.41797 6.69336,3.87305 7.15039,4.39257 7.62305,4.93946 8.15625,5.55078 8.75,6.2207 9.43555,6.98242 10.21289,7.83594 11.15625,8.83985 12.25195,9.99609 13.68164,11.45508 15.61328,13.37109 18.69727,16.3125 25.8125,22.83985 48.21093,42.69921 a 8.6519824,8.6519824 0 0 0 0.0625,0.0527 l 12.93555,11.23633 -2.63476,6.20312 -4.19141,9.36328 -3.95703,8.34961 -3.75586,7.45703 -3.60742,6.71485 -3.48438,6.0664 -3.375,5.47852 -3.28711,4.95117 -3.21484,4.48633 -3.14649,4.05273 -3.08398,3.65235 -3.02734,3.2832 -2.97852,2.94922 -2.94726,2.64453 -2.93555,2.375 -2.91797,2.113281 -2.88281,1.853516 -2.88282,1.630859 -2.86914,1.408203 -2.91406,1.21875 -2.9668,1.035157 -3.02929,0.855468 -3.10742,0.673828 -3.2168,0.494141 -3.40039,0.308594 -5.57031,0.08203 -1.67188,-0.07227 -3.59961,-0.300781 -3.83008,-0.515625 -3.99414,-0.740234 -4.25,-0.998047 -4.54883,-1.287109 -4.79101,-1.580078 -5.07813,-1.90625 -5.39843,-2.265626 -5.7461,-2.65625 -6.06054,-3.050787 -6.45704,-3.50586 -6.87695,-3.99219 -7.36133,-4.53906 -7.85742,-5.11914 -8.45898,-5.79101 -9.11328,-6.52149 -9.85547,-7.34375 -10.72461,-8.28906 -11.79102,-9.41211 -13.14844,-10.8125 -14.9375,-12.60352 -17.6914,-15.26562 -61.99805,-54.85156 a 8.6519824,8.6519824 0 0 0 -0.008,-0.006 l -23.20117,-20.47461 a 8.6519824,8.6519824 0 0 0 -0.0508,-0.043 l -13.10547,-11.38672 2.37109,-5.60742 4.37109,-9.78125 4.08008,-8.61524 3.86524,-7.66211 3.71484,-6.89062 3.57031,-6.17969 3.45703,-5.56054 3.35547,-5.00391 3.27344,-4.50977 3.18945,-4.04492 3.13282,-3.64453 3.08203,-3.27734 3.01367,-2.91407 2.98437,-2.61132 2.94532,-2.31446 2.92578,-2.05468 2.89062,-1.79688 2.89258,-1.57422 2.88086,-1.35351 2.92578,-1.16797 2.98047,-0.98242 3.04492,-0.80274 3.13086,-0.62305 3.26758,-0.44531 3.0625,-0.24023 1.08594,-0.043 z"
         style="color:#000000;font-style:normal;font-variant:normal;font-weight:normal;font-stretch:normal;font-size:medium;line-height:normal;font-family:sans-serif;text-indent:0;text-align:start;text-decoration:none;text-decoration-line:none;text-decoration-style:solid;text-decoration-color:#000000;letter-spacing:normal;word-spacing:normal;text-transform:none;writing-mode:lr-tb;direction:ltr;baseline-shift:baseline;text-anchor:start;white-space:normal;clip-rule:nonzero;display:inline;overflow:visible;visibility:visible;opacity:1;isolation:auto;mix-blend-mode:normal;color-interpolation:sRGB;color-interpolation-filters:linearRGB;solid-color:#000000;solid-opacity:1;fill:#000000;fill-opacity:1;fill-rule:nonzero;stroke:none;stroke-width:17.30223465;stroke-linecap:round;stroke-linejoin:round;stroke-miterlimit:4;stroke-dasharray:none;stroke-dashoffset:0;stroke-opacity:1;color-rendering:auto;image-rendering:auto;shape-rendering:auto;text-rendering:auto;enable-background:accumulate" />
    </g>
    <g
       style="fill:#ffffff;fill-opacity:1;stroke:none;stroke-width:17.30223465;stroke-linecap:butt;stroke-linejoin:round;stroke-miterlimit:4;stroke-dasharray:none;stroke-opacity:1"
       transform="matrix(0.8290142,0,0,1.0315104,-28.48579,462.35198)"
       id="g4719">
      <path
         style="color:#000000;font-style:normal;font-variant:normal;font-weight:normal;font-stretch:normal;font-size:medium;line-height:normal;font-family:sans-serif;text-indent:0;text-align:start;text-decoration:none;text-decoration-line:none;text-decoration-style:solid;text-decoration-color:#000000;letter-spacing:normal;word-spacing:normal;text-transform:none;writing-mode:lr-tb;direction:ltr;baseline-shift:baseline;text-anchor:start;white-space:normal;clip-rule:nonzero;display:inline;overflow:visible;visibility:visible;opacity:1;isolation:auto;mix-blend-mode:normal;color-interpolation:sRGB;color-interpolation-filters:linearRGB;solid-color:#000000;solid-opacity:1;fill:url(#radialGradient4797);fill-opacity:1;fill-rule:nonzero;stroke:none;stroke-width:17.30223465;stroke-linecap:round;stroke-linejoin:round;stroke-miterlimit:4;stroke-dasharray:none;stroke-dashoffset:0;stroke-opacity:1;color-rendering:auto;image-rendering:auto;shape-rendering:auto;text-rendering:auto;enable-background:accumulate"
         d="m 207.66016,-383.50781 c -27.62454,0.93696 -50.16522,21.79245 -63.67188,44.21655 -11.86365,18.64171 -21.6594,38.61127 -29.01367,59.45142 3.72263,6.90428 11.87754,9.70526 16.73909,15.69702 65.27335,56.01614 126.52343,117.64297 199.48942,163.70141 23.99757,14.354847 51.27637,27.256819 79.82813,23.955082 23.8851,-3.542152 43.12994,-21.048596 55.63672,-40.923832 12.91658,-19.28661 23.25832,-40.67193 30.68945,-62.39453 -3.73372,-6.82596 -11.84429,-9.5251 -16.61162,-15.52831 -64.30506,-55.41684 -125.01098,-115.89528 -196.68525,-161.94044 -23.03852,-14.29828 -48.76285,-26.76131 -76.40039,-26.23437 z m 3.21484,5.24219 c 36.54772,1.3543 67.82984,23.0773 96.82812,43.17773 64.03559,46.87966 121.28214,102.11782 181.10352,154.0332 4.49686,7.03234 -3.23431,14.24554 -4.97066,20.87883 -12.23945,27.08961 -27.19841,55.43726 -53.21684,71.586016 -21.47319,11.820342 -47.92567,7.975796 -69.20656,-2.270148 -42.5833,-18.587318 -78.02456,-49.507718 -113.71634,-78.545948 -42.1231,-35.72715 -83.01949,-72.97187 -124.44624,-109.41828 -3.24306,-9.01587 4.90977,-16.42409 7.26146,-24.58321 12.80005,-26.8818 28.13551,-55.83676 55.98073,-69.65116 7.64026,-3.43071 16.01464,-5.16798 24.38281,-5.20703 z"
         id="path4717"
         inkscape:connector-curvature="0" />
    </g>
    <g
       id="g4723"
       transform="matrix(0.8290142,0,0,1.0315104,-28.48579,462.35198)"
       style="opacity:0.5;fill:#ffffff;fill-opacity:1;stroke:none;stroke-width:17.30223465;stroke-linecap:butt;stroke-linejoin:round;stroke-miterlimit:4;stroke-dasharray:none;stroke-opacity:1">
      <path
         inkscape:connector-curvature="0"
         id="path4721"
         d="m 207.66016,-383.50781 c -27.62454,0.93696 -50.16522,21.79245 -63.67188,44.21655 -11.86365,18.64171 -21.6594,38.61127 -29.01367,59.45142 3.72263,6.90428 11.87754,9.70526 16.73909,15.69702 65.27335,56.01614 126.52343,117.64297 199.48942,163.70141 23.99757,14.354847 51.27637,27.256819 79.82813,23.955082 23.8851,-3.542152 43.12994,-21.048596 55.63672,-40.923832 12.91658,-19.28661 23.25832,-40.67193 30.68945,-62.39453 -3.73372,-6.82596 -11.84429,-9.5251 -16.61162,-15.52831 -64.30506,-55.41684 -125.01098,-115.89528 -196.68525,-161.94044 -23.03852,-14.29828 -48.76285,-26.76131 -76.40039,-26.23437 z m 3.21484,5.24219 c 36.54772,1.3543 67.82984,23.0773 96.82812,43.17773 64.03559,46.87966 121.28214,102.11782 181.10352,154.0332 4.49686,7.03234 -3.23431,14.24554 -4.97066,20.87883 -12.23945,27.08961 -27.19841,55.43726 -53.21684,71.586016 -21.47319,11.820342 -47.92567,7.975796 -69.20656,-2.270148 -42.5833,-18.587318 -78.02456,-49.507718 -113.71634,-78.545948 -42.1231,-35.72715 -83.01949,-72.97187 -124.44624,-109.41828 -3.24306,-9.01587 4.90977,-16.42409 7.26146,-24.58321 12.80005,-26.8818 28.13551,-55.83676 55.98073,-69.65116 7.64026,-3.43071 16.01464,-5.16798 24.38281,-5.20703 z"
         style="color:#000000;font-style:normal;font-variant:normal;font-weight:normal;font-stretch:normal;font-size:medium;line-height:normal;font-family:sans-serif;text-indent:0;text-align:start;text-decoration:none;text-decoration-line:none;text-decoration-style:solid;text-decoration-color:#000000;letter-spacing:normal;word-spacing:normal;text-transform:none;writing-mode:lr-tb;direction:ltr;baseline-shift:baseline;text-anchor:start;white-space:normal;clip-rule:nonzero;display:inline;overflow:visible;visibility:visible;opacity:0.328;isolation:auto;mix-blend-mode:normal;color-interpolation:sRGB;color-interpolation-filters:linearRGB;solid-color:#000000;solid-opacity:1;fill:url(#radialGradient4799);fill-opacity:1;fill-rule:nonzero;stroke:none;stroke-width:17.30223465;stroke-linecap:round;stroke-linejoin:round;stroke-miterlimit:4;stroke-dasharray:none;stroke-dashoffset:0;stroke-opacity:1;color-rendering:auto;image-rendering:auto;shape-rendering:auto;text-rendering:auto;enable-background:accumulate" />
    </g>
  </g>
  <g
     id="g4737"
     transform="matrix(-0.14046,-0.08109462,-0.08109462,0.14046,52.277016,77.149133)"
     style="stroke-linecap:butt;stroke-linejoin:round">
    <g
       id="g4731"
       style="stroke-linecap:butt;stroke-linejoin:round">
      <path
         id="path4727"
         d="m 279.24714,-80.27421 v 16.7875 h -35.1422 v 12.55312 h 85.9594 z"
         style="fill:#000000;fill-opacity:1;fill-rule:evenodd;stroke:none;stroke-width:0.80000001px;stroke-linecap:butt;stroke-linejoin:miter;stroke-opacity:1"
         inkscape:connector-curvature="0"
         sodipodi:nodetypes="cccccc" />
      <path
         inkscape:connector-curvature="0"
         style="fill:#000000;fill-opacity:1;fill-rule:evenodd;stroke:none;stroke-width:0.80000001px;stroke-linecap:butt;stroke-linejoin:miter;stroke-opacity:1"
         d="m 294.92214,-4.5336 v -16.7875 h 35.1422 v -12.5531 h -85.9594 z"
         id="path4729"
         sodipodi:nodetypes="cccccc" />
    </g>
    <path
       id="path4733"
       d="m 284.04714,-72.27421 v 13.5875 h -35.1422 v 2.95312 h 38.1797 l -0.0551,-11.2 20.34457,11.2 h 5.0902 z"
       style="fill:url(#linearGradient4801);fill-opacity:1;fill-rule:evenodd;stroke:none;stroke-width:0.80000001px;stroke-linecap:butt;stroke-linejoin:miter;stroke-opacity:1"
       inkscape:connector-curvature="0"
       sodipodi:nodetypes="ccccccccc" />
    <path
       sodipodi:nodetypes="cccccc"
       inkscape:connector-curvature="0"
       style="fill:url(#linearGradient4803);fill-opacity:1;fill-rule:evenodd;stroke:none;stroke-width:0.80000001px;stroke-linecap:butt;stroke-linejoin:miter;stroke-opacity:1"
       d="m 267.72214,-26.12109 h 57.5422 v -2.95312 h -63.5594 l 3.55215,2.067577 z"
       id="path4735" />
  </g>
  <g
     style="stroke-linecap:butt;stroke-linejoin:round"
     transform="matrix(0.14046,-0.08109462,0.08109462,0.14046,-9.4528848,92.252534)"
     id="g4749">
    <g
       style="stroke-linecap:butt;stroke-linejoin:round"
       id="g4743">
      <path
         sodipodi:nodetypes="cccccc"
         inkscape:connector-curvature="0"
         style="fill:#000000;fill-opacity:1;fill-rule:evenodd;stroke:none;stroke-width:0.80000001px;stroke-linecap:butt;stroke-linejoin:miter;stroke-opacity:1"
         d="m 279.24714,-80.27421 v 16.7875 h -35.1422 v 12.55312 h 85.9594 z"
         id="path4739" />
      <path
         sodipodi:nodetypes="cccccc"
         id="path4741"
         d="m 294.92214,-4.5336 v -16.7875 h 35.1422 v -12.5531 h -85.9594 z"
         style="fill:#000000;fill-opacity:1;fill-rule:evenodd;stroke:none;stroke-width:0.80000001px;stroke-linecap:butt;stroke-linejoin:miter;stroke-opacity:1"
         inkscape:connector-curvature="0" />
    </g>
    <path
       sodipodi:nodetypes="ccccccccc"
       inkscape:connector-curvature="0"
       style="fill:url(#linearGradient4805);fill-opacity:1;fill-rule:evenodd;stroke:none;stroke-width:0.80000001px;stroke-linecap:butt;stroke-linejoin:miter;stroke-opacity:1"
       d="m 284.04714,-72.27421 v 13.5875 h -35.1422 v 2.95312 h 38.1797 l -0.0551,-11.2 20.34457,11.2 h 5.0902 z"
       id="path4745" />
    <path
       id="path4747"
       d="m 267.72214,-26.12109 h 57.5422 v -2.95312 h -63.5594 l 3.55215,2.067577 z"
       style="fill:url(#linearGradient4807);fill-opacity:1;fill-rule:evenodd;stroke:none;stroke-width:0.80000001px;stroke-linecap:butt;stroke-linejoin:miter;stroke-opacity:1"
       inkscape:connector-curvature="0"
       sodipodi:nodetypes="cccccc" />
  </g>
  <g
     id="g4761"
     transform="matrix(0.14046,-0.08109462,0.08109462,0.14046,10.932307,41.499827)"
     style="stroke-linecap:butt;stroke-linejoin:round">
    <g
       id="g4755"
       style="stroke-linecap:butt;stroke-linejoin:round">
      <path
         id="path4751"
         d="m 279.24714,-80.27421 v 16.7875 h -35.1422 v 12.55312 h 85.9594 z"
         style="fill:#000000;fill-opacity:1;fill-rule:evenodd;stroke:none;stroke-width:0.80000001px;stroke-linecap:butt;stroke-linejoin:miter;stroke-opacity:1"
         inkscape:connector-curvature="0"
         sodipodi:nodetypes="cccccc" />
      <path
         inkscape:connector-curvature="0"
         style="fill:#000000;fill-opacity:1;fill-rule:evenodd;stroke:none;stroke-width:0.80000001px;stroke-linecap:butt;stroke-linejoin:miter;stroke-opacity:1"
         d="m 294.92214,-4.5336 v -16.7875 h 35.1422 v -12.5531 h -85.9594 z"
         id="path4753"
         sodipodi:nodetypes="cccccc" />
    </g>
    <path
       id="path4757"
       d="m 284.04714,-72.27421 v 13.5875 h -35.1422 v 2.95312 h 38.1797 l -0.0551,-11.2 20.34457,11.2 h 5.0902 z"
       style="fill:url(#linearGradient4809);fill-opacity:1;fill-rule:evenodd;stroke:none;stroke-width:0.80000001px;stroke-linecap:butt;stroke-linejoin:miter;stroke-opacity:1"
       inkscape:connector-curvature="0"
       sodipodi:nodetypes="ccccccccc" />
    <path
       sodipodi:nodetypes="cccccc"
       inkscape:connector-curvature="0"
       style="fill:url(#linearGradient4811);fill-opacity:1;fill-rule:evenodd;stroke:none;stroke-width:0.80000001px;stroke-linecap:butt;stroke-linejoin:miter;stroke-opacity:1"
       d="m 267.72214,-26.12109 h 57.5422 v -2.95312 h -63.5594 l 3.55215,2.067577 z"
       id="path4759" />
  </g>
  <g
     style="stroke-linecap:butt;stroke-linejoin:round"
     transform="matrix(-0.14046,-0.08109462,-0.08109462,0.14046,97.118151,56.388912)"
     id="g4773">
    <g
       style="stroke-linecap:butt;stroke-linejoin:round"
       id="g4767">
      <path
         sodipodi:nodetypes="cccccc"
         inkscape:connector-curvature="0"
         style="fill:#000000;fill-opacity:1;fill-rule:evenodd;stroke:none;stroke-width:0.80000001px;stroke-linecap:butt;stroke-linejoin:miter;stroke-opacity:1"
         d="m 279.24714,-80.27421 v 16.7875 h -35.1422 v 12.55312 h 85.9594 z"
         id="path4763" />
      <path
         sodipodi:nodetypes="cccccc"
         id="path4765"
         d="m 294.92214,-4.5336 v -16.7875 h 35.1422 v -12.5531 h -85.9594 z"
         style="fill:#000000;fill-opacity:1;fill-rule:evenodd;stroke:none;stroke-width:0.80000001px;stroke-linecap:butt;stroke-linejoin:miter;stroke-opacity:1"
         inkscape:connector-curvature="0" />
    </g>
    <path
       sodipodi:nodetypes="ccccccccc"
       inkscape:connector-curvature="0"
       style="fill:url(#linearGradient4813);fill-opacity:1;fill-rule:evenodd;stroke:none;stroke-width:0.80000001px;stroke-linecap:butt;stroke-linejoin:miter;stroke-opacity:1"
       d="m 284.04714,-72.27421 v 13.5875 h -35.1422 v 2.95312 h 38.1797 l -0.0551,-11.2 20.34457,11.2 h 5.0902 z"
       id="path4769" />
    <path
       id="path4771"
       d="m 267.72214,-26.12109 h 57.5422 v -2.95312 h -63.5594 l 3.55215,2.067577 z"
       style="fill:url(#linearGradient4815);fill-opacity:1;fill-rule:evenodd;stroke:none;stroke-width:0.80000001px;stroke-linecap:butt;stroke-linejoin:miter;stroke-opacity:1"
       inkscape:connector-curvature="0"
       sodipodi:nodetypes="cccccc" />
  </g>
  <circle
     r="7.0720863"
     cy="13.815483"
     cx="21.882368"
     id="circle4775"
     style="opacity:0.631;fill:url(#radialGradient4817);fill-opacity:1;stroke:none;stroke-width:3.24378467;stroke-linecap:round;stroke-linejoin:bevel;stroke-miterlimit:4;stroke-dasharray:none;stroke-dashoffset:0;stroke-opacity:1" />
  <circle
     style="opacity:0.631;fill:url(#radialGradient4819);fill-opacity:1;stroke:none;stroke-width:3.24378467;stroke-linecap:round;stroke-linejoin:bevel;stroke-miterlimit:4;stroke-dasharray:none;stroke-dashoffset:0;stroke-opacity:1"
     id="circle4777"
     cx="9.2290316"
     cy="7.0720863"
     r="7.0720863" />
  <text
     transform="scale(1.0058053,0.9942282)"
     id="text4645"
     y="59.982285"
     x="75.665054"
     style="font-style:normal;font-variant:normal;font-weight:bold;font-stretch:normal;font-size:61.07577896px;line-height:1.25;font-family:sans-serif;-inkscape-font-specification:'sans-serif Bold';letter-spacing:0px;word-spacing:0px;fill:#000000;fill-opacity:1;stroke:none;stroke-width:0.2867344;stroke-linecap:butt;stroke-linejoin:round"
     xml:space="preserve"><tspan
       y="59.982285"
       x="75.665054"
       style="font-style:normal;font-variant:normal;font-weight:bold;font-stretch:normal;font-family:sans-serif;-inkscape-font-specification:'sans-serif Bold';stroke-width:0.2867344;stroke-linecap:butt;stroke-linejoin:round"
       id="tspan4643"
       sodipodi:role="line">ECCW</tspan></text>
</svg>
